<?xml version="1.0" encoding="utf-8"?>
<!-- Generator: Adobe Illustrator 27.3.1, SVG Export Plug-In . SVG Version: 6.00 Build 0)  -->
<svg version="1.1" id="Layer_1" xmlns="http://www.w3.org/2000/svg" xmlns:xlink="http://www.w3.org/1999/xlink" x="0px" y="0px"
	 viewBox="0 0 1000 785.6" style="enable-background:new 0 0 1000 785.6;" xml:space="preserve">
<style type="text/css">
	.st0{fill:#FFFFFF;}
	.st1{fill:#222A35;}
	.st2{fill:#F1F2F2;}
	.st3{fill:#FFD364;}
	.st4{fill:#FFC200;}
	.st5{fill:#C1002E;}
	.st6{fill:#DC143C;}
	.st7{fill:#2F3944;}
	.st8{fill:#CCCCCC;}
</style>
<g>
	<g>
		<rect x="76.4" y="114.3" class="st0" width="454.2" height="313.7"/>
		<rect x="118.1" y="151.3" class="st1" width="370.9" height="239.9"/>
		<polygon class="st2" points="76.4,428.1 30.6,502.8 576.4,502.8 530.6,428.1 		"/>
		<rect x="30.6" y="502.8" class="st0" width="545.8" height="39.8"/>
	</g>
	<g>
		<path class="st3" d="M448.6,650.1v-36.2L418,592.5c-3.1-2.2-5.6-5.1-7.2-8.6l-15.2-32.5c-3.1-6.7-0.1-14.6,6.7-17.5l0,0
			c6.2-2.6,13.3,0,16.5,5.9c4.7,8.9,10.8,20.2,10.8,20.2h8.3c5.4,0,9.7-4.4,9.7-9.7v-72.6c0-4.8,3.9-8.7,8.7-8.7h10.6v-1.6
			c0-5.9,4.8-10.7,10.7-10.7h4.3c5.9,0,10.7,4.8,10.7,10.7l0,0H503c4.2,0,7.6,3.4,7.6,7.6v3.5h4.5c6.5,0,11.8,5.3,11.8,11.8v90.1
			c0,5.5-1.9,10.9-5.5,15.2L506,614.2v32.1L448.6,650.1z"/>
		<path class="st4" d="M475.8,456.8c-5.1,0.8-9,5.2-9,10.6v1.6h-10.6c-4.8,0-8.7,3.9-8.7,8.7v72.6c0,5.4-4.4,9.7-9.7,9.7h-8.3
			c0,0-6-11.3-10.8-20.2c-3.2-5.9-10.3-8.5-16.5-5.9l0,0c-6.8,2.8-9.9,10.8-6.7,17.5l15.2,32.5c1.6,3.5,4.1,6.4,7.2,8.6l30.6,21.3
			v36.2l27.2-1.8V456.8z"/>
		<rect x="437.5" y="659.8" class="st5" width="38.4" height="125.7"/>
		
			<rect x="431.7" y="703.5" transform="matrix(6.123234e-17 -1 1 6.123234e-17 -228.1455 1217.2294)" class="st6" width="125.7" height="38.4"/>
		
			<rect x="429.1" y="639" transform="matrix(6.123234e-17 -1 1 6.123234e-17 -209.4046 1114.391)" class="st1" width="46.8" height="45.7"/>
		
			<rect x="474.8" y="639" transform="matrix(6.123234e-17 -1 1 6.123234e-17 -163.6861 1160.1095)" class="st7" width="46.8" height="45.7"/>
	</g>
	<g>
		<path class="st4" d="M165.9,650.1v-36.2l30.6-21.3c3.1-2.2,5.6-5.1,7.2-8.6l15.2-32.5c3.1-6.7,0.1-14.6-6.7-17.5l0,0
			c-6.2-2.6-13.3,0-16.5,5.9c-4.7,8.9-10.8,20.2-10.8,20.2h-8.3c-5.4,0-9.7-4.4-9.7-9.7v-72.6c0-4.8-3.9-8.7-8.7-8.7h-10.6v-1.6
			c0-5.9-4.8-10.7-10.7-10.7h-4.3c-5.9,0-10.7,4.8-10.7,10.7l0,0h-10.5c-4.2,0-7.6,3.4-7.6,7.6v3.5h-4.5c-6.5,0-11.8,5.3-11.8,11.8
			v90.1c0,5.5,1.9,10.9,5.5,15.2l15.5,18.7v32.1L165.9,650.1z"/>
		<path class="st3" d="M138.7,456.8c5.1,0.8,9,5.2,9,10.6v1.6h10.6c4.8,0,8.7,3.9,8.7,8.7v72.6c0,5.4,4.4,9.7,9.7,9.7h8.3
			c0,0,6-11.3,10.8-20.2c3.1-5.9,10.3-8.5,16.5-5.9l0,0c6.8,2.8,9.9,10.8,6.7,17.5l-15.2,32.5c-1.6,3.5-4.1,6.4-7.2,8.6l-30.6,21.3
			v36.2l-27.2-1.8V456.8z"/>
		
			<rect x="95" y="703.5" transform="matrix(6.123234e-17 -1 1 6.123234e-17 -564.7987 880.5761)" class="st6" width="125.7" height="38.4"/>
		<rect x="100.8" y="659.8" class="st5" width="38.4" height="125.7"/>
		
			<rect x="138.7" y="639" transform="matrix(6.123234e-17 -1 1 6.123234e-17 -499.8547 823.9409)" class="st7" width="46.8" height="45.7"/>
		
			<rect x="92.9" y="639" transform="matrix(6.123234e-17 -1 1 6.123234e-17 -545.5703 778.2253)" class="st1" width="46.8" height="45.7"/>
	</g>
	<path class="st8" d="M619.6,183.6h-4.9v-5.7h4.9V183.6z M601.1,183.6h-4.9v-5.7h4.9V183.6z M582.6,183.6h-4.9v-5.7h4.9V183.6z
		 M564.1,183.6h-4.9v-5.7h4.9V183.6z M545.6,183.6h-4.9v-5.7h4.9V183.6z M527.1,183.6h-4.9v-5.7h4.9V183.6z M508.7,183.6h-4.9v-5.7
		h4.9V183.6z M490.2,183.6h-4.9v-5.7h4.9V183.6z M471.7,183.6h-4.9v-5.7h4.9V183.6z M453.2,183.6h-4.9v-5.7h4.9V183.6z M434.7,183.6
		h-4.9v-5.7h4.9V183.6z M416.2,183.6h-4.9v-5.7h4.9V183.6z M397.7,183.6h-4.9v-5.7h4.9V183.6z M379.3,183.6h-4.9v-5.7h4.9V183.6z
		 M360.8,183.6h-4.9v-5.7h4.9V183.6z M342.3,183.6h-4.9v-5.7h4.9V183.6z M323.8,183.6h-4.9v-5.7h4.9V183.6z M305.3,183.6h-4.9v-5.7
		h4.9V183.6z M286.8,183.6h-4.9v-5.7h4.9V183.6z M268.3,183.6h-4.9v-5.7h4.9V183.6z M249.9,183.6H245v-5.7h4.9V183.6z M231.4,183.6
		h-4.9v-5.7h4.9V183.6z M631.4,176.2h-5.7v-4.9h5.7V176.2z M631.4,157.7h-5.7v-4.9h5.7V157.7z M631.4,139.2h-5.7v-4.9h5.7V139.2z
		 M631.4,120.7h-5.7v-4.9h5.7V120.7z M631.4,102.3h-5.7v-4.9h5.7V102.3z M631.4,83.8h-5.7v-4.9h5.7V83.8z M631.4,65.3h-5.7v-4.9h5.7
		V65.3z M679.9,59.1H675v-5.7h4.9V59.1z M661.4,59.1h-4.9v-5.7h4.9V59.1z M642.9,59.1H638v-5.7h4.9V59.1z"/>
	<path class="st8" d="M767.4,232h-4.9v-5.7h4.9V232z M749,232h-4.9v-5.7h4.9V232z M730.5,232h-4.9v-5.7h4.9V232z M712,232h-4.9v-5.7
		h4.9V232z M693.5,232h-4.9v-5.7h4.9V232z M675,232h-4.9v-5.7h4.9V232z M656.5,232h-4.9v-5.7h4.9V232z M638,232h-4.9v-5.7h4.9V232z
		 M619.6,232h-4.9v-5.7h4.9V232z M601.1,232h-4.9v-5.7h4.9V232z M582.6,232h-4.9v-5.7h4.9V232z M564.1,232h-4.9v-5.7h4.9V232z
		 M545.6,232h-4.9v-5.7h4.9V232z M527.1,232h-4.9v-5.7h4.9V232z M508.7,232h-4.9v-5.7h4.9V232z M490.2,232h-4.9v-5.7h4.9V232z
		 M471.7,232h-4.9v-5.7h4.9V232z M453.2,232h-4.9v-5.7h4.9V232z M434.7,232h-4.9v-5.7h4.9V232z M416.2,232h-4.9v-5.7h4.9V232z
		 M397.7,232h-4.9v-5.7h4.9V232z M379.3,232h-4.9v-5.7h4.9V232z M360.8,232h-4.9v-5.7h4.9V232z M342.3,232h-4.9v-5.7h4.9V232z
		 M323.8,232h-4.9v-5.7h4.9V232z M305.3,232h-4.9v-5.7h4.9V232z M286.8,232h-4.9v-5.7h4.9V232z M268.3,232h-4.9v-5.7h4.9V232z
		 M249.9,232H245v-5.7h4.9V232z M231.4,232h-4.9v-5.7h4.9V232z"/>
	<path class="st8" d="M832,375.7h-4.9V370h4.9V375.7z M813.5,375.7h-4.9V370h4.9V375.7z M795.1,375.7h-4.9V370h4.9V375.7z
		 M776.6,375.7h-4.9V370h4.9V375.7z M758.1,375.7h-4.9V370h4.9V375.7z M739.6,375.7h-4.9V370h4.9V375.7z M721.1,375.7h-4.9V370h4.9
		V375.7z M710.1,368.2h-5.7v-4.9h5.7V368.2z M710.1,349.8h-5.7v-4.9h5.7V349.8z M710.1,331.3h-5.7v-4.9h5.7V331.3z M710.1,312.8
		h-5.7v-4.9h5.7V312.8z M710.1,294.3h-5.7v-4.9h5.7V294.3z M710.1,275.8h-5.7v-4.8h2.8l-0.1-2.8h3V275.8z M693.5,273.9h-4.9v-5.7
		h4.9V273.9z M675,273.9h-4.9v-5.7h4.9V273.9z M656.5,273.9h-4.9v-5.7h4.9V273.9z M638,273.9h-4.9v-5.7h4.9V273.9z M619.6,273.9
		h-4.9v-5.7h4.9V273.9z M601.1,273.9h-4.9v-5.7h4.9V273.9z M582.6,273.9h-4.9v-5.7h4.9V273.9z M564.1,273.9h-4.9v-5.7h4.9V273.9z
		 M545.6,273.9h-4.9v-5.7h4.9V273.9z M527.1,273.9h-4.9v-5.7h4.9V273.9z M508.7,273.9h-4.9v-5.7h4.9V273.9z M490.2,273.9h-4.9v-5.7
		h4.9V273.9z M471.7,273.9h-4.9v-5.7h4.9V273.9z M453.2,273.9h-4.9v-5.7h4.9V273.9z M434.7,273.9h-4.9v-5.7h4.9V273.9z M416.2,273.9
		h-4.9v-5.7h4.9V273.9z M397.7,273.9h-4.9v-5.7h4.9V273.9z M379.3,273.9h-4.9v-5.7h4.9V273.9z M360.8,273.9h-4.9v-5.7h4.9V273.9z
		 M342.3,273.9h-4.9v-5.7h4.9V273.9z M323.8,273.9h-4.9v-5.7h4.9V273.9z M305.3,273.9h-4.9v-5.7h4.9V273.9z M286.8,273.9h-4.9v-5.7
		h4.9V273.9z M268.3,273.9h-4.9v-5.7h4.9V273.9z M249.9,273.9H245v-5.7h4.9V273.9z M231.4,273.9h-4.9v-5.7h4.9V273.9z"/>
	<path class="st8" d="M676.4,523h-4.9v-5.7h4.9V523z M694.9,523H690v-5.7h4.9V523z M713.4,523h-4.9v-5.7h4.9V523z M745.5,523l0-5.7
		l4.9,0l0,5.7L745.5,523z M731.9,523H727v-5.7h4.9V523z M669.8,511.1h-5.7v-4.9h5.7V511.1z M669.8,492.6h-5.7v-4.9h5.7V492.6z
		 M669.8,474.1h-5.7v-4.9h5.7V474.1z M669.8,455.6h-5.7v-4.9h5.7V455.6z M669.8,437.2h-5.7v-4.9h5.7V437.2z M669.8,418.7h-5.7v-4.9
		h5.7V418.7z M669.8,400.2h-5.7v-4.9h5.7V400.2z M669.8,381.7h-5.7v-4.9h5.7V381.7z M669.8,363.2h-5.7v-4.9h5.7V363.2z M669.8,344.7
		h-5.7v-4.9h5.7V344.7z M669.8,326.3h-5.7v-4.9h5.7V326.3z M656.5,321.1h-4.9v-5.7h4.9V321.1z M638,321.1h-4.9v-5.7h4.9V321.1z
		 M619.6,321.1h-4.9v-5.7h4.9V321.1z M601.1,321.1h-4.9v-5.7h4.9V321.1z M582.6,321.1h-4.9v-5.7h4.9V321.1z M564.1,321.1h-4.9v-5.7
		h4.9V321.1z M545.6,321.1h-4.9v-5.7h4.9V321.1z M527.1,321.1h-4.9v-5.7h4.9V321.1z M508.7,321.1h-4.9v-5.7h4.9V321.1z M490.2,321.1
		h-4.9v-5.7h4.9V321.1z M471.7,321.1h-4.9v-5.7h4.9V321.1z M453.2,321.1h-4.9v-5.7h4.9V321.1z M434.7,321.1h-4.9v-5.7h4.9V321.1z
		 M416.2,321.1h-4.9v-5.7h4.9V321.1z M397.7,321.1h-4.9v-5.7h4.9V321.1z M379.3,321.1h-4.9v-5.7h4.9V321.1z M360.8,321.1h-4.9v-5.7
		h4.9V321.1z M342.3,321.1h-4.9v-5.7h4.9V321.1z M323.8,321.1h-4.9v-5.7h4.9V321.1z M305.3,321.1h-4.9v-5.7h4.9V321.1z M286.8,321.1
		h-4.9v-5.7h4.9V321.1z M268.3,321.1h-4.9v-5.7h4.9V321.1z M249.9,321.1H245v-5.7h4.9V321.1z M231.4,321.1h-4.9v-5.7h4.9V321.1z"/>
	<path class="st4" d="M781.6,229.2c0,8-6.5,14.5-14.5,14.5c-8,0-14.5-6.5-14.5-14.5c0-8,6.5-14.5,14.5-14.5
		C775.1,214.7,781.6,221.2,781.6,229.2z"/>
	<path class="st4" d="M707.8,56.2c0,8-6.5,14.5-14.5,14.5c-8,0-14.5-6.5-14.5-14.5c0-8,6.5-14.5,14.5-14.5
		C701.3,41.8,707.8,48.2,707.8,56.2z"/>
	<path class="st4" d="M848.9,372.8c0,8-6.5,14.5-14.5,14.5c-8,0-14.5-6.5-14.5-14.5c0-8,6.5-14.5,14.5-14.5
		C842.4,358.4,848.9,364.8,848.9,372.8z"/>
	<path class="st4" d="M778.1,520.1c0,8-6.5,14.5-14.5,14.5c-8,0-14.5-6.5-14.5-14.5c0-8,6.5-14.5,14.5-14.5
		C771.6,505.7,778.1,512.1,778.1,520.1z"/>
	<g>
		<path class="st8" d="M823.9,85.4h-88.2V17.2h88.2V85.4z M739.5,81.6h80.7V21h-80.7V81.6z"/>
		<path class="st8" d="M823.9,110.5h-88.2V81.6h88.2V110.5z M739.5,106.7h80.7V85.4h-80.7V106.7z"/>
		<rect x="773" y="90.7" class="st8" width="27.8" height="3.8"/>
		<rect x="773" y="97.8" class="st8" width="38" height="3.8"/>
		<path class="st5" d="M791.9,41.6c0,7.4-6,13.3-13.3,13.3c-7.3,0-13.3-6-13.3-13.3c0-7.3,6-13.3,13.3-13.3
			C785.9,28.3,791.9,34.3,791.9,41.6z"/>
		<path class="st5" d="M792.2,72.7H765v-4c0-7.5,6.1-13.6,13.6-13.6l0,0c7.5,0,13.6,6.1,13.6,13.6V72.7z"/>
		<path class="st8" d="M755.9,104.5L755,104c-0.1,0-8-4.2-8-9.2c0-3.4,2.3-5.9,5.5-5.9c1.1,0,2.3,0.5,3.3,1.1c1-0.6,2.2-1.1,3.3-1.1
			c3.2,0,5.5,2.5,5.5,5.9c0,5-7.9,9.2-7.9,9.2L755.9,104.5z M752.6,92.7c-1.3,0-1.7,1.2-1.7,2.1c0,1.5,2.9,4,5,5.3
			c2.1-1.3,5-3.8,5-5.3c0-0.4-0.1-2.1-1.7-2.1c-0.4,0-1.4,0.5-2,1.1l-1.4,1.4l-1.4-1.4C754,93.2,753,92.7,752.6,92.7z"/>
	</g>
	<g>
		<g>
			<polygon class="st8" points="814.8,557.1 797.3,506.1 836.8,492.6 838,496.1 802.1,508.5 817.1,552.3 840.2,544.4 841.4,548 			
				"/>
			<polygon class="st8" points="819.7,571.4 813.6,553.5 840.2,544.4 841.4,548 818.3,555.9 822,566.6 873.4,549 872.7,546.8 
				876.3,545.6 878.2,551.4 			"/>
			<polygon class="st5" points="837.4,509.6 836.7,509.1 831.2,527 824.5,523.4 819.7,538.4 837.4,532.3 			"/>
		</g>
		<g>
			<path class="st8" d="M897.4,533h-61.9v-53.8h61.9V533z M839.3,529.2h54.3v-46.3h-54.3V529.2z"/>
			<polygon class="st8" points="881.9,548 835.5,548 835.5,529.2 897.4,529.2 897.4,541.3 893.7,541.3 893.7,532.9 839.3,532.9 
				839.3,544.3 881.9,544.3 			"/>
			<polygon class="st5" points="846.2,516.8 855.6,504.2 860.8,509.9 871.8,494.6 887.3,516.8 			"/>
		</g>
		<path class="st8" d="M897.6,570.9h-18.5V550c0-5.8,4.7-10.6,10.6-10.6h10.8v-7l25.2,16.2l-25.2,16.2v-7h-1.9c-0.5,0-1,0.4-1,1
			V570.9z M882.9,567.1h10.9v-8.3c0-2.6,2.1-4.8,4.8-4.8h5.7v3.8l14.4-9.3l-14.4-9.3v3.8h-14.6c-3.7,0-6.8,3.1-6.8,6.8V567.1z"/>
	</g>
	<g>
		<polygon class="st8" points="884.2,261.2 810.4,261.2 810.4,191.9 900,191.9 900,252.5 896.2,252.5 896.2,195.6 814.2,195.6 
			814.2,257.5 884.2,257.5 		"/>
		<path class="st8" d="M899.9,210.3h-89.6v-18.4h89.6V210.3z M814.2,206.5h82v-10.9h-82V206.5z"/>
		<polygon class="st5" points="844.3,218.4 869.9,233.1 844.3,247.9 		"/>
		<path class="st8" d="M823.4,201.1c0,1.1-0.9,2.1-2.1,2.1c-1.1,0-2.1-0.9-2.1-2.1c0-1.2,0.9-2.1,2.1-2.1
			C822.5,199,823.4,200,823.4,201.1z"/>
		<path class="st8" d="M830.1,201.1c0,1.1-0.9,2.1-2.1,2.1c-1.2,0-2.1-0.9-2.1-2.1c0-1.2,0.9-2.1,2.1-2.1
			C829.2,199,830.1,200,830.1,201.1z"/>
		<path class="st8" d="M836.9,201.1c0,1.1-0.9,2.1-2.1,2.1c-1.2,0-2.1-0.9-2.1-2.1c0-1.2,0.9-2.1,2.1-2.1
			C835.9,199,836.9,200,836.9,201.1z"/>
		<path class="st8" d="M883.3,272.7c-0.6,0-1.2-0.2-1.7-0.6c-1-0.7-1.5-2.1-1.1-3.3l2.6-8l-6.8-5c-1-0.7-1.5-2.1-1.1-3.3
			c0.4-1.2,1.5-2,2.8-2h8.4l2.6-8c0.8-2.4,4.8-2.4,5.6,0l2.6,8h8.4c1.3,0,2.4,0.8,2.8,2c0.4,1.2,0,2.5-1.1,3.3l-6.8,5l2.6,8
			c0.4,1.2,0,2.5-1.1,3.3c-1,0.8-2.4,0.7-3.5,0l-6.8-5l-6.8,5C884.5,272.6,883.9,272.7,883.3,272.7z M891.8,263.2
			c0.6,0,1.2,0.2,1.7,0.6l5.2,3.8l-2-6.1c-0.4-1.2,0-2.5,1.1-3.3l5.2-3.8h-6.5c-1.3,0-2.4-0.8-2.8-2l-2-6.2l-2,6.1
			c-0.4,1.2-1.5,2-2.8,2h-6.5l5.2,3.8c1,0.8,1.5,2.1,1.1,3.3l-2,6.2l5.2-3.8C890.6,263.4,891.2,263.2,891.8,263.2z"/>
	</g>
	<path class="st8" d="M665.2,654.3h-4.5v-5.7h4.5V654.3z M647.1,654.3h-4.9v-5.7h4.9V654.3z M628.6,654.3h-4.9v-5.7h4.9V654.3z
		 M622.8,641.6h-5.7v-4.9h5.7V641.6z M622.8,623.1h-5.7v-4.9h5.7V623.1z M622.8,604.6h-5.7v-4.9h5.7V604.6z M622.8,586.1h-5.7v-4.9
		h5.7V586.1z M622.8,567.7h-5.7v-4.9h5.7V567.7z M622.8,549.2h-5.7v-4.9h5.7V549.2z M622.8,530.7h-5.7v-4.9h5.7V530.7z M622.8,512.2
		h-5.7v-4.9h5.7V512.2z M622.8,493.7h-5.7v-4.9h5.7V493.7z M622.8,475.2h-5.7v-4.9h5.7V475.2z M622.8,456.7h-5.7v-4.9h5.7V456.7z
		 M622.8,438.3h-5.7v-4.9h5.7V438.3z M622.8,419.8h-5.7v-4.9h5.7V419.8z M612.5,411.6h-4.9v-5.7h4.9V411.6z M594,411.6h-4.9v-5.7
		h4.9V411.6z M575.6,411.6h-4.3v-6.3h5.7v3.4h-1.4V411.6z M576.9,391.7h-5.7v-4.9h5.7V391.7z M576.9,373.2h-5.7v-4.9h5.7V373.2z
		 M564.1,367.6h-4.9v-5.7h4.9V367.6z M545.6,367.6h-4.9v-5.7h4.9V367.6z M527.1,367.6h-4.9v-5.7h4.9V367.6z M508.7,367.6h-4.9v-5.7
		h4.9V367.6z M490.2,367.6h-4.9v-5.7h4.9V367.6z M471.7,367.6h-4.9v-5.7h4.9V367.6z M453.2,367.6h-4.9v-5.7h4.9V367.6z M434.7,367.6
		h-4.9v-5.7h4.9V367.6z M416.2,367.6h-4.9v-5.7h4.9V367.6z M397.7,367.6h-4.9v-5.7h4.9V367.6z M379.3,367.6h-4.9v-5.7h4.9V367.6z
		 M360.8,367.6h-4.9v-5.7h4.9V367.6z M342.3,367.6h-4.9v-5.7h4.9V367.6z M323.8,367.6h-4.9v-5.7h4.9V367.6z M305.3,367.6h-4.9v-5.7
		h4.9V367.6z M286.8,367.6h-4.9v-5.7h4.9V367.6z M268.3,367.6h-4.9v-5.7h4.9V367.6z M249.9,367.6H245v-5.7h4.9V367.6z M231.4,367.6
		h-4.9v-5.7h4.9V367.6z"/>
	<g>
		<g>
			<path class="st5" d="M790.8,643.1c0,8.4-6.8,15.2-15.4,15.2c-7.6,0-13.8-5.5-15-12.7c3.4-3.5,5.5-8.3,5.5-13.5
				c0-0.2,0-0.5-0.1-0.7c2.6-2.2,6-3.5,9.6-3.5C784,627.8,790.8,634.7,790.8,643.1z"/>
			<path class="st5" d="M791.2,674.2v4.5h-24.7v-6c0-3.3-0.7-6.5-2.3-9.3c2.8-3,6.9-4.9,11.3-4.9
				C784.1,658.6,791.2,665.5,791.2,674.2z"/>
		</g>
		<path class="st8" d="M746,653.9c-12.1,0-21.9-9.8-21.9-21.9c0-12.1,9.8-21.9,21.9-21.9c12.1,0,21.9,9.8,21.9,21.9
			C767.9,644.1,758.1,653.9,746,653.9z M746,614c-10,0-18.1,8.1-18.1,18.1c0,10,8.1,18.1,18.1,18.1c10,0,18.1-8.1,18.1-18.1
			C764.1,622.1,756,614,746,614z"/>
		<path class="st8" d="M738.7,680.6h-14.9v-7.8c0-3.4,0.8-6.8,2.3-9.7l3.4,1.7c-1.2,2.5-1.9,5.2-1.9,8.1v4.1h11.2V680.6z"/>
		<path class="st8" d="M768.3,680.6H746v-3.8h18.6v-4.1c0-3.1-0.7-5.9-2.1-8.3c-3.1-6.4-9.4-10.3-16.5-10.3c-4.6,0-9,1.7-12.2,4.8
			l-0.5,0.5h-0.8l-0.1-1.9l-1.2-1.3c3.9-3.8,9.2-5.9,14.8-5.9c8.5,0,16.1,4.7,19.9,12.3c1.6,2.9,2.5,6.4,2.5,10.1V680.6z"/>
		<g>
			<path class="st8" d="M723.2,703.2c-0.6,0-1.2,0-1.8-0.1c-6.6-0.5-12.6-3.5-16.9-8.5c-4.3-5-6.5-11.4-6-17.9
				c0.5-6.6,3.5-12.6,8.5-16.9c5-4.3,11.4-6.4,17.9-6c6.6,0.5,12.6,3.5,16.9,8.5c4.3,5,6.5,11.4,6,17.9c-0.5,6.6-3.5,12.6-8.5,16.9
				C734.8,701.1,729.2,703.2,723.2,703.2z M723.1,657.6c-5,0-9.9,1.8-13.7,5.1l0,0c-4.2,3.7-6.8,8.7-7.2,14.3
				c-0.4,5.6,1.4,11,5.1,15.2c3.7,4.2,8.8,6.8,14.3,7.2c5.5,0.4,11-1.4,15.2-5.1c4.2-3.7,6.8-8.8,7.2-14.3c0.4-5.6-1.4-11-5.1-15.2
				c-3.7-4.2-8.8-6.8-14.3-7.2C724.1,657.6,723.6,657.6,723.1,657.6z M723.2,695.9c-0.4,0-0.8,0-1.2,0c-4.6-0.3-8.9-2.4-11.9-5.9
				c-3-3.5-4.5-8-4.2-12.6c0.3-4.6,2.4-8.8,5.9-11.9c3.5-3,8-4.6,12.6-4.2c4.6,0.3,8.8,2.4,11.9,5.9c6.3,7.2,5.5,18.2-1.7,24.5
				C731.4,694.4,727.4,695.9,723.2,695.9z M723.2,664.9c-3.3,0-6.4,1.2-8.9,3.3c-2.7,2.4-4.4,5.7-4.7,9.3c-0.2,3.6,0.9,7.1,3.3,9.9
				c2.4,2.8,5.7,4.4,9.3,4.7c3.7,0.3,7.1-0.9,9.9-3.3c5.7-4.9,6.3-13.5,1.4-19.2c-2.4-2.8-5.7-4.4-9.3-4.7
				C723.8,664.9,723.5,664.9,723.2,664.9z"/>
			
				<rect x="694.3" y="696.5" transform="matrix(0.7514 -0.6599 0.6599 0.7514 -286.7271 635.722)" class="st8" width="12" height="3.8"/>
			<path class="st8" d="M677.7,724.2c-0.1,0-0.3,0-0.4,0c-1.6-0.1-3.1-0.8-4.1-2c-2.2-2.5-1.9-6.3,0.6-8.5l15.1-13.1
				c2.5-2.1,6.3-1.9,8.5,0.6c1.1,1.2,1.6,2.8,1.5,4.4c-0.1,1.6-0.8,3-2,4.1l-15.1,13.1C680.5,723.7,679.1,724.2,677.7,724.2z
				 M692.8,702.9c-0.5,0-1,0.2-1.5,0.5l-15.1,13.1c-0.5,0.4-0.7,0.9-0.8,1.5c0,0.6,0.1,1.2,0.5,1.6c0.4,0.5,0.9,0.7,1.5,0.8
				c0.5,0.1,1.2-0.1,1.6-0.5l15.1-13.1c0.5-0.4,0.7-0.9,0.8-1.5c0-0.6-0.1-1.2-0.5-1.6C694,703.1,693.4,702.9,692.8,702.9z"/>
		</g>
		<g>
			<rect x="696.3" y="627.8" class="st8" width="3.8" height="22.9"/>
			<rect x="686.7" y="637.4" class="st8" width="22.9" height="3.8"/>
		</g>
		<g>
			<rect x="767.9" y="692.9" class="st8" width="3.8" height="16.9"/>
			<rect x="761.3" y="699.5" class="st8" width="16.9" height="3.8"/>
		</g>
		<path class="st8" d="M768.3,678.7h-3.8v-6c0-3.1-0.7-5.9-2.1-8.3l3.3-1.9c1.7,3,2.6,6.5,2.6,10.2V678.7z"/>
	</g>
	<path class="st4" d="M679.7,651.5c0,8-6.5,14.5-14.5,14.5c-8,0-14.5-6.5-14.5-14.5c0-8,6.5-14.5,14.5-14.5
		C673.2,637,679.7,643.5,679.7,651.5z"/>
	<g>
		<path class="st8" d="M961.9,369.5c-0.7,0-1.2-0.2-1.6-0.3l1.1-3.6l0,0c0.2,0.1,0.4,0.1,0.5,0.1c1.7,0,3.7-3.3,3.7-7.6
			c0-4.3-2-7.6-3.7-7.6c-0.1,0-0.4,0.1-0.5,0.1l-1.2-3.6c0.5-0.2,1.1-0.3,1.7-0.3c4.2,0,7.5,5,7.5,11.4
			C969.4,364.5,966.1,369.5,961.9,369.5z"/>
		<path class="st8" d="M962.7,402.1l-13.1-11.5c-13.8-12.1-22.8-17.6-39.1-17.6h-1.1l-5-8.9H900l2.2-3.9l-2.2-3.9h4.4l5-8.9h1.1
			c16.3,0,25.2-5.4,39.1-17.6l13.1-11.5V402.1z M911.6,369.2c18.3,0.3,28.3,7.9,40.4,18.5l6.9,6v-67.2l-6.9,6
			c-12.1,10.6-22.1,18.2-40.4,18.5l-5.1,8.9l0.1,0.1l-0.1,0.1h0.1L911.6,369.2z"/>
		<path class="st8" d="M911.2,415.5h-32.2v-43.6h21.1L911.2,415.5z M882.7,411.7h23.6l-9.2-36h-14.4V411.7z"/>
		<rect x="870.2" y="343.6" class="st5" width="42.8" height="33.1"/>
	</g>
	<g>
		<path class="st0" d="M152.7,174.7c0,1.5-0.5,2.8-1.4,3.8c-0.9,1.1-2.2,1.9-4,2.3v0.1c4,0.5,6,2.4,6,5.7c0,2.2-0.9,4-2.7,5.3
			c-1.8,1.3-4.2,1.9-7.4,1.9c-1.3,0-2.5-0.1-3.6-0.3c-1.1-0.2-2.3-0.5-3.6-1v-5.4c1.1,0.5,2.1,0.9,3.2,1.2c1.1,0.3,2.1,0.4,3,0.4
			c1.4,0,2.5-0.2,3.1-0.6c0.7-0.4,1-1,1-1.9c0-0.7-0.2-1.2-0.5-1.5c-0.3-0.4-0.9-0.6-1.6-0.8c-0.8-0.2-1.8-0.3-3-0.3h-1.5v-4.9h1.5
			c3.3,0,5-0.8,5-2.5c0-0.6-0.2-1.1-0.7-1.4c-0.5-0.3-1.1-0.5-2-0.5c-1.5,0-3.1,0.5-4.8,1.5l-2.7-4.3c1.3-0.9,2.6-1.5,3.9-1.9
			c1.3-0.4,2.9-0.6,4.6-0.6c2.5,0,4.4,0.5,5.9,1.5C152,171.6,152.7,173,152.7,174.7z"/>
		<path class="st0" d="M166,177.8c1.4,0,2.6,0.3,3.7,1c1.1,0.6,2,1.6,2.6,2.7c0.6,1.2,0.9,2.5,0.9,4.1c0,2.7-0.8,4.8-2.4,6.2
			c-1.6,1.4-4.1,2.2-7.4,2.2c-2.8,0-5.1-0.4-6.9-1.3v-5.3c1,0.4,2,0.8,3.2,1.1c1.2,0.3,2.2,0.4,3.1,0.4c1.2,0,2.1-0.3,2.8-0.8
			c0.6-0.5,1-1.3,1-2.3c0-0.9-0.3-1.6-1-2.2c-0.7-0.5-1.7-0.8-3-0.8c-1,0-2.1,0.2-3.3,0.6l-2.4-1.2l0.9-12.7h13.7v5.4h-8.2l-0.3,3.2
			c0.9-0.2,1.5-0.2,1.8-0.3C165.4,177.8,165.7,177.8,166,177.8z"/>
		<path class="st0" d="M188.2,176.7c0,2.4-0.5,4.3-1.6,5.6c-1.1,1.3-2.6,2-4.6,2c-1.9,0-3.4-0.7-4.5-2.1c-1.1-1.4-1.7-3.2-1.7-5.5
			c0-2.4,0.5-4.3,1.6-5.6c1.1-1.3,2.6-2,4.5-2c1.9,0,3.4,0.7,4.6,2C187.6,172.5,188.2,174.3,188.2,176.7z M180.8,176.7
			c0,1.3,0.1,2.2,0.3,2.7c0.2,0.6,0.5,0.8,0.9,0.8s0.7-0.3,0.9-0.8c0.2-0.6,0.3-1.5,0.3-2.8c0-1.3-0.1-2.2-0.3-2.7
			c-0.2-0.6-0.5-0.8-0.9-0.8c-0.4,0-0.7,0.3-0.9,0.9C180.9,174.6,180.8,175.5,180.8,176.7z M200.2,169.5l-13.4,24.1H182l13.4-24.1
			H200.2z M206.5,186.3c0,2.4-0.5,4.3-1.6,5.6c-1.1,1.3-2.6,2-4.6,2c-1.9,0-3.4-0.7-4.5-2c-1.1-1.4-1.7-3.2-1.7-5.5
			c0-2.4,0.5-4.3,1.6-5.6c1.1-1.3,2.6-2,4.5-2c1.9,0,3.4,0.7,4.6,2C206,182.1,206.5,183.9,206.5,186.3z M199.1,186.3
			c0,1.3,0.1,2.2,0.3,2.7c0.2,0.6,0.5,0.8,0.9,0.8c0.5,0,0.8-0.3,1-1c0.2-0.6,0.3-1.5,0.3-2.6c0-1.1-0.1-2-0.3-2.6
			c-0.2-0.6-0.5-1-1-1c-0.4,0-0.7,0.3-0.9,0.9C199.2,184.2,199.1,185.1,199.1,186.3z"/>
	</g>
	<g>
		<path class="st0" d="M150.5,237.6h-6.6v-12.7c0-1.5,0-3,0.1-4.3c-0.4,0.5-0.9,1-1.5,1.5l-2.7,2.3l-3.4-4.1l8.3-6.7h5.9V237.6z"/>
		<path class="st0" d="M166,221.9c1.4,0,2.6,0.3,3.7,1c1.1,0.6,2,1.6,2.6,2.7c0.6,1.2,0.9,2.5,0.9,4.1c0,2.7-0.8,4.7-2.4,6.2
			c-1.6,1.4-4.1,2.2-7.4,2.2c-2.8,0-5.1-0.4-6.9-1.3v-5.3c1,0.4,2,0.8,3.2,1.1c1.2,0.3,2.2,0.4,3.1,0.4c1.2,0,2.1-0.3,2.8-0.8
			c0.6-0.5,1-1.3,1-2.3c0-0.9-0.3-1.6-1-2.2c-0.7-0.5-1.7-0.8-3-0.8c-1,0-2.1,0.2-3.3,0.6l-2.4-1.2l0.9-12.7h13.7v5.4h-8.2l-0.3,3.2
			c0.9-0.2,1.5-0.2,1.8-0.3C165.4,221.9,165.7,221.9,166,221.9z"/>
		<path class="st0" d="M188.2,220.7c0,2.4-0.5,4.3-1.6,5.6c-1.1,1.3-2.6,2-4.6,2c-1.9,0-3.4-0.7-4.5-2.1c-1.1-1.4-1.7-3.2-1.7-5.5
			c0-2.4,0.5-4.3,1.6-5.6c1.1-1.3,2.6-2,4.5-2c1.9,0,3.4,0.7,4.6,2C187.6,216.6,188.2,218.4,188.2,220.7z M180.8,220.8
			c0,1.3,0.1,2.2,0.3,2.7c0.2,0.6,0.5,0.8,0.9,0.8s0.7-0.3,0.9-0.8c0.2-0.6,0.3-1.5,0.3-2.8c0-1.3-0.1-2.2-0.3-2.7
			c-0.2-0.6-0.5-0.8-0.9-0.8c-0.4,0-0.7,0.3-0.9,0.9C180.9,218.7,180.8,219.6,180.8,220.8z M200.2,213.6l-13.4,24.1H182l13.4-24.1
			H200.2z M206.5,230.3c0,2.4-0.5,4.3-1.6,5.6c-1.1,1.3-2.6,2-4.6,2c-1.9,0-3.4-0.7-4.5-2c-1.1-1.4-1.7-3.2-1.7-5.5
			c0-2.4,0.5-4.3,1.6-5.6c1.1-1.3,2.6-2,4.5-2c1.9,0,3.4,0.7,4.6,2C206,226.2,206.5,228,206.5,230.3z M199.1,230.4
			c0,1.3,0.1,2.2,0.3,2.7c0.2,0.6,0.5,0.8,0.9,0.8c0.5,0,0.8-0.3,1-1c0.2-0.6,0.3-1.5,0.3-2.6c0-1.1-0.1-2-0.3-2.6
			c-0.2-0.6-0.5-1-1-1c-0.4,0-0.7,0.3-0.9,0.9C199.2,228.2,199.1,229.1,199.1,230.4z"/>
	</g>
	<g>
		<path class="st0" d="M153.5,283.2H136v-4.3l5.9-5.9c1.7-1.8,2.8-3,3.3-3.6c0.5-0.6,0.9-1.2,1.1-1.7c0.2-0.5,0.3-0.9,0.3-1.4
			c0-0.6-0.2-1.1-0.6-1.5c-0.4-0.4-1-0.5-1.7-0.5c-0.8,0-1.5,0.2-2.3,0.6c-0.8,0.4-1.6,1.1-2.6,1.9l-3.6-4.2
			c1.2-1.1,2.3-1.9,3.1-2.4c0.8-0.5,1.8-0.8,2.8-1.1c1-0.3,2.1-0.4,3.4-0.4c1.6,0,2.9,0.3,4.2,0.8c1.2,0.5,2.2,1.3,2.8,2.3
			c0.7,1,1,2.2,1,3.4c0,0.9-0.1,1.8-0.4,2.6c-0.2,0.8-0.6,1.6-1.1,2.4c-0.5,0.8-1.1,1.6-2,2.4c-0.8,0.9-2.6,2.5-5.2,4.9v0.2h9.1
			V283.2z"/>
		<path class="st0" d="M166,267.4c1.4,0,2.6,0.3,3.7,1c1.1,0.6,2,1.6,2.6,2.7c0.6,1.2,0.9,2.5,0.9,4.1c0,2.7-0.8,4.8-2.4,6.2
			c-1.6,1.4-4.1,2.2-7.4,2.2c-2.8,0-5.1-0.4-6.9-1.3v-5.3c1,0.4,2,0.8,3.2,1.1c1.2,0.3,2.2,0.4,3.1,0.4c1.2,0,2.1-0.3,2.8-0.8
			c0.6-0.5,1-1.3,1-2.3c0-0.9-0.3-1.6-1-2.2c-0.7-0.5-1.7-0.8-3-0.8c-1,0-2.1,0.2-3.3,0.6l-2.4-1.2l0.9-12.7h13.7v5.4h-8.2l-0.3,3.2
			c0.9-0.2,1.5-0.2,1.8-0.3C165.4,267.4,165.7,267.4,166,267.4z"/>
		<path class="st0" d="M188.2,266.3c0,2.4-0.5,4.3-1.6,5.6c-1.1,1.3-2.6,2-4.6,2c-1.9,0-3.4-0.7-4.5-2.1c-1.1-1.4-1.7-3.2-1.7-5.5
			c0-2.4,0.5-4.3,1.6-5.6c1.1-1.3,2.6-2,4.5-2c1.9,0,3.4,0.7,4.6,2C187.6,262.1,188.2,264,188.2,266.3z M180.8,266.3
			c0,1.3,0.1,2.2,0.3,2.7c0.2,0.6,0.5,0.8,0.9,0.8s0.7-0.3,0.9-0.8c0.2-0.6,0.3-1.5,0.3-2.8c0-1.3-0.1-2.2-0.3-2.7
			c-0.2-0.6-0.5-0.8-0.9-0.8c-0.4,0-0.7,0.3-0.9,0.9C180.9,264.2,180.8,265.1,180.8,266.3z M200.2,259.1l-13.4,24.1H182l13.4-24.1
			H200.2z M206.5,275.9c0,2.4-0.5,4.3-1.6,5.6c-1.1,1.3-2.6,2-4.6,2c-1.9,0-3.4-0.7-4.5-2c-1.1-1.4-1.7-3.2-1.7-5.5
			c0-2.4,0.5-4.3,1.6-5.6c1.1-1.3,2.6-2,4.5-2c1.9,0,3.4,0.7,4.6,2C206,271.7,206.5,273.5,206.5,275.9z M199.1,275.9
			c0,1.3,0.1,2.2,0.3,2.7c0.2,0.6,0.5,0.8,0.9,0.8c0.5,0,0.8-0.3,1-1c0.2-0.6,0.3-1.5,0.3-2.6c0-1.1-0.1-2-0.3-2.6
			c-0.2-0.6-0.5-1-1-1c-0.4,0-0.7,0.3-0.9,0.9C199.2,273.8,199.1,274.7,199.1,275.9z"/>
	</g>
	<g>
		<path class="st0" d="M150.5,328h-6.6v-12.7c0-1.5,0-3,0.1-4.2c-0.4,0.5-0.9,1-1.5,1.5l-2.7,2.3l-3.4-4.1l8.3-6.7h5.9V328z"/>
		<path class="st0" d="M173.7,316c0,4.3-0.7,7.4-2.1,9.4c-1.4,2-3.6,3-6.6,3c-2.9,0-5-1-6.5-3.1c-1.5-2.1-2.2-5.1-2.2-9.2
			c0-4.3,0.7-7.4,2.1-9.4c1.4-2,3.6-3,6.6-3c2.9,0,5,1,6.5,3.1C172.9,308.7,173.7,311.8,173.7,316z M162.8,316
			c0,2.7,0.2,4.6,0.5,5.6c0.3,1,0.9,1.5,1.7,1.5c0.8,0,1.4-0.5,1.7-1.6c0.3-1.1,0.5-2.9,0.5-5.6c0-2.7-0.2-4.5-0.5-5.6
			c-0.3-1.1-0.9-1.6-1.7-1.6c-0.8,0-1.4,0.5-1.7,1.5C162.9,311.3,162.8,313.2,162.8,316z"/>
		<path class="st0" d="M188.2,311.1c0,2.4-0.5,4.3-1.6,5.6c-1.1,1.3-2.6,2-4.6,2c-1.9,0-3.4-0.7-4.5-2.1c-1.1-1.4-1.7-3.2-1.7-5.5
			c0-2.4,0.5-4.3,1.6-5.6c1.1-1.3,2.6-2,4.5-2c1.9,0,3.4,0.7,4.6,2C187.6,306.9,188.2,308.7,188.2,311.1z M180.8,311.1
			c0,1.3,0.1,2.2,0.3,2.7c0.2,0.6,0.5,0.8,0.9,0.8s0.7-0.3,0.9-0.8c0.2-0.6,0.3-1.5,0.3-2.8c0-1.3-0.1-2.2-0.3-2.7
			c-0.2-0.6-0.5-0.8-0.9-0.8c-0.4,0-0.7,0.3-0.9,0.9C180.9,309,180.8,309.9,180.8,311.1z M200.2,303.9L186.9,328H182l13.4-24.1
			H200.2z M206.5,320.6c0,2.4-0.5,4.3-1.6,5.6c-1.1,1.3-2.6,2-4.6,2c-1.9,0-3.4-0.7-4.5-2c-1.1-1.4-1.7-3.2-1.7-5.5
			c0-2.4,0.5-4.3,1.6-5.6c1.1-1.3,2.6-2,4.5-2c1.9,0,3.4,0.7,4.6,2C206,316.5,206.5,318.3,206.5,320.6z M199.1,320.7
			c0,1.3,0.1,2.2,0.3,2.7c0.2,0.6,0.5,0.8,0.9,0.8c0.5,0,0.8-0.3,1-1c0.2-0.6,0.3-1.5,0.3-2.6c0-1.1-0.1-2-0.3-2.6
			c-0.2-0.6-0.5-1-1-1c-0.4,0-0.7,0.3-0.9,0.9C199.2,318.6,199.1,319.5,199.1,320.7z"/>
	</g>
	<g>
		<path class="st0" d="M150.5,372.8h-6.6V360c0-1.5,0-3,0.1-4.2c-0.4,0.5-0.9,1-1.5,1.5l-2.7,2.3l-3.4-4.1l8.3-6.7h5.9V372.8z"/>
		<path class="st0" d="M166,357c1.4,0,2.6,0.3,3.7,1c1.1,0.6,2,1.6,2.6,2.7c0.6,1.2,0.9,2.5,0.9,4.1c0,2.7-0.8,4.8-2.4,6.2
			c-1.6,1.4-4.1,2.2-7.4,2.2c-2.8,0-5.1-0.4-6.9-1.3v-5.3c1,0.4,2,0.8,3.2,1.1s2.2,0.4,3.1,0.4c1.2,0,2.1-0.3,2.8-0.8
			c0.6-0.5,1-1.3,1-2.3c0-0.9-0.3-1.6-1-2.2c-0.7-0.5-1.7-0.8-3-0.8c-1,0-2.1,0.2-3.3,0.6l-2.4-1.2l0.9-12.7h13.7v5.4h-8.2l-0.3,3.2
			c0.9-0.2,1.5-0.2,1.8-0.3C165.4,357,165.7,357,166,357z"/>
		<path class="st0" d="M188.2,355.9c0,2.4-0.5,4.3-1.6,5.6c-1.1,1.3-2.6,2-4.6,2c-1.9,0-3.4-0.7-4.5-2.1c-1.1-1.4-1.7-3.2-1.7-5.5
			c0-2.4,0.5-4.3,1.6-5.6c1.1-1.3,2.6-2,4.5-2c1.9,0,3.4,0.7,4.6,2C187.6,351.7,188.2,353.6,188.2,355.9z M180.8,355.9
			c0,1.3,0.1,2.2,0.3,2.7c0.2,0.6,0.5,0.8,0.9,0.8s0.7-0.3,0.9-0.8c0.2-0.6,0.3-1.5,0.3-2.7c0-1.3-0.1-2.2-0.3-2.7
			c-0.2-0.6-0.5-0.8-0.9-0.8c-0.4,0-0.7,0.3-0.9,0.9C180.9,353.8,180.8,354.7,180.8,355.9z M200.2,348.7l-13.4,24.1H182l13.4-24.1
			H200.2z M206.5,365.5c0,2.4-0.5,4.3-1.6,5.6c-1.1,1.3-2.6,2-4.6,2c-1.9,0-3.4-0.7-4.5-2c-1.1-1.4-1.7-3.2-1.7-5.5
			c0-2.4,0.5-4.3,1.6-5.6c1.1-1.3,2.6-2,4.5-2c1.9,0,3.4,0.7,4.6,2C206,361.3,206.5,363.1,206.5,365.5z M199.1,365.5
			c0,1.3,0.1,2.2,0.3,2.7c0.2,0.6,0.5,0.8,0.9,0.8c0.5,0,0.8-0.3,1-1c0.2-0.6,0.3-1.5,0.3-2.6c0-1.1-0.1-2-0.3-2.6
			c-0.2-0.6-0.5-1-1-1c-0.4,0-0.7,0.3-0.9,0.9C199.2,363.4,199.1,364.3,199.1,365.5z"/>
	</g>
	<g>
		<rect x="260.2" y="80.2" class="st5" width="189.2" height="310.9"/>
		
			<rect x="286.5" y="181.5" transform="matrix(-1 -1.224647e-16 1.224647e-16 -1 709.2201 406.3687)" class="st6" width="136.3" height="43.4"/>
		
			<rect x="286.5" y="108.6" transform="matrix(-1 -1.224647e-16 1.224647e-16 -1 709.2201 270.5345)" class="st6" width="136.3" height="53.3"/>
		
			<rect x="286.5" y="241.2" transform="matrix(-1 -1.224647e-16 1.224647e-16 -1 709.2201 504.1568)" class="st6" width="136.3" height="21.7"/>
		
			<rect x="286.5" y="283.1" transform="matrix(-1 -1.224647e-16 1.224647e-16 -1 709.2201 639.4547)" class="st6" width="136.3" height="73.2"/>
	</g>
</g>
</svg>