<?xml version="1.0" encoding="utf-8"?>
<!-- Generator: Adobe Illustrator 27.3.1, SVG Export Plug-In . SVG Version: 6.00 Build 0)  -->
<svg version="1.1" id="Layer_1" xmlns="http://www.w3.org/2000/svg" xmlns:xlink="http://www.w3.org/1999/xlink" x="0px" y="0px"
	 viewBox="0 0 1000 1000" style="enable-background:new 0 0 1000 1000;" xml:space="preserve">
<style type="text/css">
	.st0{fill:#231F20;stroke:#231F20;stroke-miterlimit:10;}
</style>
<g>
	<g>
		<path class="st0" d="M261.64,281.13h-61.81c-9.62,0-17.45-7.83-17.45-17.45v-61.81c0-9.62,7.83-17.45,17.45-17.45h61.81
			c9.62,0,17.45,7.83,17.45,17.45v61.81C279.09,273.3,271.26,281.13,261.64,281.13z M199.83,194.6c-4.01,0-7.28,3.26-7.28,7.27
			v61.81c0,4.01,3.27,7.27,7.28,7.27h61.81c4.01,0,7.28-3.26,7.28-7.27v-61.81c0-4.01-3.27-7.27-7.28-7.27H199.83z"/>
	</g>
	<g>
		<path class="st0" d="M800.17,281.13h-61.81c-9.62,0-17.45-7.83-17.45-17.45v-61.81c0-9.62,7.83-17.45,17.45-17.45h61.81
			c9.62,0,17.45,7.83,17.45,17.45v61.81C817.62,273.3,809.79,281.13,800.17,281.13z M738.36,194.6c-4.01,0-7.28,3.26-7.28,7.27
			v61.81c0,4.01,3.27,7.27,7.28,7.27h61.81c4.01,0,7.27-3.26,7.27-7.27v-61.81c0-4.01-3.26-7.27-7.27-7.27H738.36z"/>
	</g>
	<g>
		<path class="st0" d="M499.05,281.12c-26.67,0-48.37-21.68-48.37-48.34c0-26.65,21.7-48.33,48.37-48.33
			c26.66,0,48.34,21.68,48.34,48.33C547.39,259.43,525.71,281.12,499.05,281.12z M499.05,194.62c-21.06,0-38.19,17.12-38.19,38.16
			c0,21.04,17.13,38.16,38.19,38.16c21.05,0,38.17-17.12,38.17-38.16C537.22,211.74,520.1,194.62,499.05,194.62z"/>
	</g>
	<g>
		<path class="st0" d="M499.05,624.37c-26.67,0-48.37-21.68-48.37-48.34c0-26.67,21.7-48.37,48.37-48.37
			c26.66,0,48.34,21.7,48.34,48.37C547.39,602.69,525.71,624.37,499.05,624.37z M499.05,537.84c-21.06,0-38.19,17.13-38.19,38.19
			c0,21.04,17.13,38.16,38.19,38.16c21.05,0,38.17-17.12,38.17-38.16C537.22,554.97,520.1,537.84,499.05,537.84z"/>
	</g>
	<g>
		<path class="st0" d="M725.06,549.91c-26.67,0-48.37-21.68-48.37-48.34c0-26.67,21.7-48.37,48.37-48.37
			c26.65,0,48.34,21.7,48.34,48.37C773.39,528.23,751.71,549.91,725.06,549.91z M725.06,463.38c-21.06,0-38.19,17.13-38.19,38.19
			c0,21.04,17.13,38.16,38.19,38.16c21.04,0,38.16-17.12,38.16-38.16C763.22,480.51,746.1,463.38,725.06,463.38z"/>
	</g>
	<g>
		<path class="st0" d="M273.05,549.91c-26.67,0-48.37-21.68-48.37-48.34c0-26.67,21.7-48.37,48.37-48.37
			c26.65,0,48.34,21.7,48.34,48.37C321.39,528.23,299.71,549.91,273.05,549.91z M273.05,463.38c-21.06,0-38.19,17.13-38.19,38.19
			c0,21.04,17.13,38.16,38.19,38.16c21.04,0,38.16-17.12,38.16-38.16C311.22,480.51,294.1,463.38,273.05,463.38z"/>
	</g>
	<g>
		<path class="st0" d="M725.04,463.39c-2.81,0-5.09-2.28-5.09-5.09c0-110.97-73.42-201.64-178.54-220.5
			c-2.59-0.47-4.4-2.83-4.17-5.46c0.24-2.62,2.43-4.64,5.07-4.64h183.7c2.81,0,5.09,2.28,5.09,5.09s-2.28,5.09-5.09,5.09H580.86
			c89.54,32.42,149.27,118.2,149.27,220.42C730.13,461.12,727.85,463.39,725.04,463.39z"/>
	</g>
	<g>
		<path class="st0" d="M273.04,463.38c-2.81,0-5.09-2.28-5.09-5.09c0-102.24,59.72-188.01,149.27-220.43H273.04
			c-2.81,0-5.09-2.28-5.09-5.09c0-2.81,2.28-5.09,5.09-5.09h182.73c2.64,0,4.83,2.01,5.07,4.64c0.23,2.62-1.58,4.99-4.17,5.46
			c-105.12,18.87-178.54,109.54-178.54,220.51C278.12,461.1,275.85,463.38,273.04,463.38z"/>
	</g>
	<g>
		<path class="st0" d="M611.43,815.57H386.58c-2.81,0-5.09-2.28-5.09-5.09c0-41.53,33.79-75.31,75.31-75.31h84.4
			c41.52,0,75.31,33.79,75.31,75.31C616.52,813.29,614.24,815.57,611.43,815.57z M391.86,805.4h214.29
			c-2.61-33.55-30.74-60.05-64.94-60.05h-84.4C422.6,745.34,394.47,771.85,391.86,805.4z"/>
	</g>
	<g>
		<path class="st0" d="M573.37,751.06c-0.02,0-0.04,0-0.06,0c-2.81-0.03-5.06-2.34-5.03-5.14c0.05-3.98,1.89-98.26,69.15-163.14
			c3.37-3.25,3.92-8.35,1.32-12.13L499.46,369.23c-0.1-0.13-0.75-0.13-0.83-0.01L359.3,570.65c-2.63,3.78-2.09,8.88,1.29,12.13
			c67.26,64.89,69.11,159.16,69.15,163.15c0.03,2.81-2.22,5.11-5.03,5.14c-2.71-0.01-5.11-2.22-5.15-5.02
			c-0.01-0.93-1.91-94.08-66.04-155.94c-6.99-6.73-8.08-17.35-2.59-25.25l139.32-201.4c1.99-2.88,5.28-4.61,8.78-4.61
			c3.51,0,6.8,1.73,8.79,4.62l139.29,201.41c5.45,7.91,4.35,18.52-2.63,25.24c-64.13,61.86-66.03,155-66.04,155.94
			C578.42,748.82,576.15,751.06,573.37,751.06z"/>
	</g>
	<g>
		<path class="st0" d="M499.04,537.87c-2.81,0-5.09-2.28-5.09-5.09V363.91c0-2.81,2.28-5.09,5.09-5.09s5.09,2.28,5.09,5.09v168.87
			C504.13,535.59,501.85,537.87,499.04,537.87z"/>
	</g>
</g>
</svg>