<?xml version="1.0" encoding="utf-8"?>
<!-- Generator: Adobe Illustrator 27.3.1, SVG Export Plug-In . SVG Version: 6.00 Build 0)  -->
<svg version="1.1" id="Layer_1" xmlns="http://www.w3.org/2000/svg" xmlns:xlink="http://www.w3.org/1999/xlink" x="0px" y="0px"
	 viewBox="0 0 1000 1000" style="enable-background:new 0 0 1000 1000;" xml:space="preserve">
<style type="text/css">
	.st0{fill:#231F20;stroke:#231F20;stroke-miterlimit:10;}
</style>
<g>
	<g>
		<path class="st0" d="M656.36,698.61H392.11c-9.83,0-17.82-7.97-17.82-17.76v-21.53c0-21.67,17.65-39.29,39.36-39.29h27.9
			l15.46-23.37H292.22c-21.8,0-39.54-17.72-39.54-39.51V223.91c0-21.77,17.74-39.48,39.54-39.48h453.49
			c21.79,0,39.51,17.71,39.51,39.48v333.23c0,21.79-17.72,39.51-39.51,39.51H591.46l15.44,23.37h27.9
			c21.7,0,39.36,17.63,39.36,39.29v21.53C674.16,690.64,666.17,698.61,656.36,698.61z M413.64,630.2
			c-16.09,0-29.18,13.06-29.18,29.12v21.53c0,4.18,3.43,7.59,7.65,7.59h264.25c4.2,0,7.62-3.4,7.62-7.59v-21.53
			c0-16.06-13.09-29.12-29.18-29.12h-30.56c-0.04,0-0.09,0-0.15,0H444.34c-0.05,0-0.1,0-0.14,0H413.64z M453.74,620.03h140.97
			l-15.44-23.37H469.2L453.74,620.03z M582.01,586.48h163.7c16.18,0,29.34-13.16,29.34-29.34V223.91
			c0-16.16-13.16-29.31-29.34-29.31H292.22c-16.19,0-29.37,13.15-29.37,29.31v333.23c0,16.18,13.17,29.34,29.37,29.34H582.01z"/>
	</g>
	<g>
		<path class="st0" d="M725.35,554.87l-183.67-0.03c-2.81,0-5.09-2.28-5.09-5.09s2.28-5.09,5.09-5.09l0,0l183.67,0.03
			c4.53,0,8.21-3.7,8.21-8.25V244.59c0-4.53-3.69-8.21-8.21-8.21H312.57c-4.54,0-8.24,3.69-8.24,8.21v291.86
			c0,4.55,3.7,8.25,8.24,8.25l193.78-0.03c2.81,0,5.09,2.28,5.09,5.09s-2.28,5.09-5.09,5.09l-193.78,0.03
			c-10.15,0-18.42-8.26-18.42-18.42V244.59c0-10.14,8.26-18.39,18.42-18.39h412.78c10.14,0,18.39,8.25,18.39,18.39v291.86
			C743.74,546.61,735.49,554.87,725.35,554.87z"/>
	</g>
	<g>
		<path class="st0" d="M492.41,470.26c-0.61,0-1.23-0.11-1.83-0.34c-2.62-1.01-3.92-3.96-2.91-6.58l57.65-149.28
			c1.01-2.62,3.96-3.93,6.58-2.91c2.62,1.01,3.92,3.96,2.91,6.58l-57.65,149.28C496.38,469.02,494.45,470.26,492.41,470.26z"/>
	</g>
	<g>
		<path class="st0" d="M471.97,436.18c-0.77,0-1.55-0.17-2.28-0.54l-80.49-40.37c-1.72-0.86-2.8-2.62-2.8-4.55v-0.41
			c0-1.92,1.09-3.69,2.81-4.55l80.49-40.34c2.52-1.26,5.57-0.24,6.83,2.27c1.26,2.51,0.25,5.57-2.27,6.83l-71.83,36l71.83,36.03
			c2.51,1.26,3.52,4.32,2.27,6.83C475.62,435.16,473.83,436.18,471.97,436.18z"/>
	</g>
	<g>
		<path class="st0" d="M569.87,436.18c-1.87,0-3.67-1.03-4.56-2.82c-1.25-2.52-0.23-5.57,2.29-6.82l72.4-36l-72.4-36
			c-2.52-1.25-3.54-4.3-2.29-6.82c1.25-2.52,4.31-3.54,6.82-2.29l81.12,40.34c1.73,0.86,2.82,2.62,2.82,4.55v0.44
			c0,1.93-1.09,3.69-2.82,4.55l-81.12,40.34C571.41,436.01,570.63,436.18,569.87,436.18z"/>
	</g>
	<g>
		<path class="st0" d="M731.88,815.57H175.61c-2.1,0-3.98-1.29-4.74-3.25c-0.76-1.96-0.24-4.18,1.32-5.6l92.51-84.28
			c0.93-0.85,2.16-1.33,3.42-1.33h556.26c2.1,0,3.98,1.29,4.74,3.25c0.76,1.96,0.24,4.18-1.32,5.6l-92.51,84.28
			C734.37,815.09,733.15,815.57,731.88,815.57z M188.75,805.39h541.16l81.34-74.1H270.09L188.75,805.39z"/>
	</g>
	<g>
		<path class="st0" d="M759.03,751.67h-15.27c-2.81,0-5.09-2.28-5.09-5.09s2.28-5.09,5.09-5.09h15.27c2.81,0,5.09,2.28,5.09,5.09
			S761.84,751.67,759.03,751.67z M713.22,751.67h-15.27c-2.81,0-5.09-2.28-5.09-5.09s2.28-5.09,5.09-5.09h15.27
			c2.81,0,5.09,2.28,5.09,5.09S716.03,751.67,713.22,751.67z M667.41,751.67h-15.27c-2.81,0-5.09-2.28-5.09-5.09
			s2.28-5.09,5.09-5.09h15.27c2.81,0,5.09,2.28,5.09,5.09S670.22,751.67,667.41,751.67z M621.6,751.67h-15.27
			c-2.81,0-5.09-2.28-5.09-5.09s2.28-5.09,5.09-5.09h15.27c2.81,0,5.09,2.28,5.09,5.09S624.41,751.67,621.6,751.67z M575.79,751.67
			h-15.27c-2.81,0-5.09-2.28-5.09-5.09s2.28-5.09,5.09-5.09h15.27c2.81,0,5.09,2.28,5.09,5.09S578.6,751.67,575.79,751.67z
			 M529.98,751.67h-15.27c-2.81,0-5.09-2.28-5.09-5.09s2.28-5.09,5.09-5.09h15.27c2.81,0,5.09,2.28,5.09,5.09
			S532.79,751.67,529.98,751.67z M484.17,751.67H468.9c-2.81,0-5.09-2.28-5.09-5.09s2.28-5.09,5.09-5.09h15.27
			c2.81,0,5.09,2.28,5.09,5.09S486.98,751.67,484.17,751.67z M438.36,751.67h-15.27c-2.81,0-5.09-2.28-5.09-5.09
			s2.28-5.09,5.09-5.09h15.27c2.81,0,5.09,2.28,5.09,5.09S441.17,751.67,438.36,751.67z M392.55,751.67h-15.27
			c-2.81,0-5.09-2.28-5.09-5.09s2.28-5.09,5.09-5.09h15.27c2.81,0,5.09,2.28,5.09,5.09S395.36,751.67,392.55,751.67z M346.73,751.67
			h-15.27c-2.81,0-5.09-2.28-5.09-5.09s2.28-5.09,5.09-5.09h15.27c2.81,0,5.09,2.28,5.09,5.09S349.54,751.67,346.73,751.67z
			 M300.92,751.67h-15.27c-2.81,0-5.09-2.28-5.09-5.09s2.28-5.09,5.09-5.09h15.27c2.81,0,5.09,2.28,5.09,5.09
			S303.73,751.67,300.92,751.67z"/>
	</g>
	<g>
		<path class="st0" d="M744.97,765.74H729.7c-2.81,0-5.09-2.28-5.09-5.09s2.28-5.09,5.09-5.09h15.27c2.81,0,5.09,2.28,5.09,5.09
			S747.78,765.74,744.97,765.74z M699.16,765.74h-15.27c-2.81,0-5.09-2.28-5.09-5.09s2.28-5.09,5.09-5.09h15.27
			c2.81,0,5.09,2.28,5.09,5.09S701.97,765.74,699.16,765.74z M653.35,765.74h-15.27c-2.81,0-5.09-2.28-5.09-5.09
			s2.28-5.09,5.09-5.09h15.27c2.81,0,5.09,2.28,5.09,5.09S656.15,765.74,653.35,765.74z M607.54,765.74h-15.27
			c-2.81,0-5.09-2.28-5.09-5.09s2.28-5.09,5.09-5.09h15.27c2.81,0,5.09,2.28,5.09,5.09S610.34,765.74,607.54,765.74z M561.73,765.74
			h-15.27c-2.81,0-5.09-2.28-5.09-5.09s2.28-5.09,5.09-5.09h15.27c2.81,0,5.09,2.28,5.09,5.09S564.53,765.74,561.73,765.74z
			 M515.92,765.74h-15.27c-2.81,0-5.09-2.28-5.09-5.09s2.28-5.09,5.09-5.09h15.27c2.81,0,5.09,2.28,5.09,5.09
			S518.72,765.74,515.92,765.74z M470.1,765.74h-15.27c-2.81,0-5.09-2.28-5.09-5.09s2.28-5.09,5.09-5.09h15.27
			c2.81,0,5.09,2.28,5.09,5.09S472.91,765.74,470.1,765.74z M424.29,765.74h-15.27c-2.81,0-5.09-2.28-5.09-5.09s2.28-5.09,5.09-5.09
			h15.27c2.81,0,5.09,2.28,5.09,5.09S427.1,765.74,424.29,765.74z M378.48,765.74h-15.27c-2.81,0-5.09-2.28-5.09-5.09
			s2.28-5.09,5.09-5.09h15.27c2.81,0,5.09,2.28,5.09,5.09S381.29,765.74,378.48,765.74z M332.67,765.74H317.4
			c-2.81,0-5.09-2.28-5.09-5.09s2.28-5.09,5.09-5.09h15.27c2.81,0,5.09,2.28,5.09,5.09S335.48,765.74,332.67,765.74z M286.86,765.74
			h-15.27c-2.81,0-5.09-2.28-5.09-5.09s2.28-5.09,5.09-5.09h15.27c2.81,0,5.09,2.28,5.09,5.09S289.67,765.74,286.86,765.74z"/>
	</g>
	<g>
		<path class="st0" d="M730.9,779.81h-15.27c-2.81,0-5.09-2.28-5.09-5.09s2.28-5.09,5.09-5.09h15.27c2.81,0,5.09,2.28,5.09,5.09
			S733.71,779.81,730.9,779.81z M685.09,779.81h-15.27c-2.81,0-5.09-2.28-5.09-5.09s2.28-5.09,5.09-5.09h15.27
			c2.81,0,5.09,2.28,5.09,5.09S687.9,779.81,685.09,779.81z M639.27,779.81H624c-2.81,0-5.09-2.28-5.09-5.09s2.28-5.09,5.09-5.09
			h15.27c2.81,0,5.09,2.28,5.09,5.09S642.08,779.81,639.27,779.81z M593.46,779.81h-15.27c-2.81,0-5.09-2.28-5.09-5.09
			s2.28-5.09,5.09-5.09h15.27c2.81,0,5.09,2.28,5.09,5.09S596.27,779.81,593.46,779.81z M547.65,779.81h-15.27
			c-2.81,0-5.09-2.28-5.09-5.09s2.28-5.09,5.09-5.09h15.27c2.81,0,5.09,2.28,5.09,5.09S550.46,779.81,547.65,779.81z M501.84,779.81
			h-15.27c-2.81,0-5.09-2.28-5.09-5.09s2.28-5.09,5.09-5.09h15.27c2.81,0,5.09,2.28,5.09,5.09S504.65,779.81,501.84,779.81z
			 M456.03,779.81h-15.27c-2.81,0-5.09-2.28-5.09-5.09s2.28-5.09,5.09-5.09h15.27c2.81,0,5.09,2.28,5.09,5.09
			S458.84,779.81,456.03,779.81z M410.22,779.81h-15.27c-2.81,0-5.09-2.28-5.09-5.09s2.28-5.09,5.09-5.09h15.27
			c2.81,0,5.09,2.28,5.09,5.09S413.03,779.81,410.22,779.81z M364.41,779.81h-15.27c-2.81,0-5.09-2.28-5.09-5.09
			s2.28-5.09,5.09-5.09h15.27c2.81,0,5.09,2.28,5.09,5.09S367.22,779.81,364.41,779.81z M318.6,779.81h-15.27
			c-2.81,0-5.09-2.28-5.09-5.09s2.28-5.09,5.09-5.09h15.27c2.81,0,5.09,2.28,5.09,5.09S321.41,779.81,318.6,779.81z M272.79,779.81
			h-15.27c-2.81,0-5.09-2.28-5.09-5.09s2.28-5.09,5.09-5.09h15.27c2.81,0,5.09,2.28,5.09,5.09S275.6,779.81,272.79,779.81z"/>
	</g>
	<g>
		<path class="st0" d="M716.83,793.88h-15.27c-2.81,0-5.09-2.28-5.09-5.09s2.28-5.09,5.09-5.09h15.27c2.81,0,5.09,2.28,5.09,5.09
			S719.64,793.88,716.83,793.88z M671.02,793.88h-15.27c-2.81,0-5.09-2.28-5.09-5.09s2.28-5.09,5.09-5.09h15.27
			c2.81,0,5.09,2.28,5.09,5.09S673.83,793.88,671.02,793.88z M625.21,793.88h-15.27c-2.81,0-5.09-2.28-5.09-5.09
			s2.28-5.09,5.09-5.09h15.27c2.81,0,5.09,2.28,5.09,5.09S628.01,793.88,625.21,793.88z M579.4,793.88h-15.27
			c-2.81,0-5.09-2.28-5.09-5.09s2.28-5.09,5.09-5.09h15.27c2.81,0,5.09,2.28,5.09,5.09S582.2,793.88,579.4,793.88z M533.59,793.88
			h-15.27c-2.81,0-5.09-2.28-5.09-5.09s2.28-5.09,5.09-5.09h15.27c2.81,0,5.09,2.28,5.09,5.09S536.39,793.88,533.59,793.88z
			 M487.78,793.88H472.5c-2.81,0-5.09-2.28-5.09-5.09s2.28-5.09,5.09-5.09h15.27c2.81,0,5.09,2.28,5.09,5.09
			S490.59,793.88,487.78,793.88z M441.96,793.88h-15.27c-2.81,0-5.09-2.28-5.09-5.09s2.28-5.09,5.09-5.09h15.27
			c2.81,0,5.09,2.28,5.09,5.09S444.77,793.88,441.96,793.88z M396.15,793.88h-15.27c-2.81,0-5.09-2.28-5.09-5.09
			s2.28-5.09,5.09-5.09h15.27c2.81,0,5.09,2.28,5.09,5.09S398.96,793.88,396.15,793.88z M350.34,793.88h-15.27
			c-2.81,0-5.09-2.28-5.09-5.09s2.28-5.09,5.09-5.09h15.27c2.81,0,5.09,2.28,5.09,5.09S353.15,793.88,350.34,793.88z M304.53,793.88
			h-15.27c-2.81,0-5.09-2.28-5.09-5.09s2.28-5.09,5.09-5.09h15.27c2.81,0,5.09,2.28,5.09,5.09S307.34,793.88,304.53,793.88z
			 M258.72,793.88h-15.27c-2.81,0-5.09-2.28-5.09-5.09s2.28-5.09,5.09-5.09h15.27c2.81,0,5.09,2.28,5.09,5.09
			S261.53,793.88,258.72,793.88z"/>
	</g>
</g>
</svg>