<?xml version="1.0" encoding="utf-8"?>
<!-- Generator: Adobe Illustrator 27.3.1, SVG Export Plug-In . SVG Version: 6.00 Build 0)  -->
<svg version="1.1" id="Layer_1" xmlns="http://www.w3.org/2000/svg" xmlns:xlink="http://www.w3.org/1999/xlink" x="0px" y="0px"
	 viewBox="0 0 1000 1000" style="enable-background:new 0 0 1000 1000;" xml:space="preserve">
<style type="text/css">
	.st0{fill:#DC143C;}
	.st1{fill:#222A35;}
	.st2{fill:#FFFFFF;}
</style>
<g>
	<g>
		<g>
			<path class="st0" d="M774.6,500c0,151.6-122.9,274.6-274.6,274.6c-151.6,0-274.6-122.9-274.6-274.6
				c0-151.7,122.9-274.6,274.6-274.6C651.6,225.4,774.6,348.4,774.6,500z"/>
		</g>
		<g>
			<path class="st1" d="M500,784.4c-156.8,0-284.4-127.6-284.4-284.3c0-156.8,127.6-284.4,284.4-284.4
				c156.8,0,284.3,127.6,284.3,284.4C784.3,656.8,656.8,784.4,500,784.4z M500,235.2C354,235.2,235.2,354,235.2,500
				c0,146,118.8,264.8,264.8,264.8c146,0,264.8-118.8,264.8-264.8C764.8,354,646,235.2,500,235.2z"/>
		</g>
	</g>
	<g>
		<g>
			<path class="st2" d="M710.4,500c0,116.2-94.2,210.4-210.4,210.4c-116.2,0-210.4-94.2-210.4-210.4c0-116.2,94.2-210.4,210.4-210.4
				C616.2,289.6,710.4,383.8,710.4,500z"/>
		</g>
		<g>
			<path class="st1" d="M500,720.1c-121.4,0-220.1-98.7-220.1-220.1S378.6,279.9,500,279.9c121.4,0,220.2,98.8,220.2,220.2
				S621.4,720.1,500,720.1z M500,299.4c-110.6,0-200.6,90-200.6,200.6s90,200.6,200.6,200.6c110.6,0,200.6-90,200.6-200.6
				S610.6,299.4,500,299.4z"/>
		</g>
	</g>
	<g>
		<g>
			<path class="st1" d="M642.9,574.2c-1.4,0-2.7-0.3-4-0.9L496,508.9c-3.5-1.6-5.8-5.1-5.8-8.9V396.3c0-5.4,4.4-9.8,9.8-9.8
				c5.4,0,9.8,4.4,9.8,9.8v97.3l137.1,61.8c4.9,2.2,7.1,8,4.9,12.9C650.2,572.1,646.6,574.2,642.9,574.2z"/>
		</g>
	</g>
</g>
</svg>