<?xml version="1.0" encoding="utf-8"?>
<!-- Generator: Adobe Illustrator 27.3.1, SVG Export Plug-In . SVG Version: 6.00 Build 0)  -->
<svg version="1.1" id="Layer_1" xmlns="http://www.w3.org/2000/svg" xmlns:xlink="http://www.w3.org/1999/xlink" x="0px" y="0px"
	 viewBox="0 0 1000 1000" style="enable-background:new 0 0 1000 1000;" xml:space="preserve">
<style type="text/css">
	.st0{fill:#FFFFFF;}
	.st1{fill:#222A35;}
	.st2{fill:#DC143C;}
</style>
<g>
	<g>
		<g>
			<g>
				<path class="st0" d="M390.5,498.7c0,53.3-43.2,96.5-96.5,96.5c-53.3,0-96.5-43.2-96.5-96.5c0-53.3,43.2-96.5,96.5-96.5
					C347.3,402.2,390.5,445.4,390.5,498.7z"/>
			</g>
			<g>
				<path class="st1" d="M294,604.5c-58.3,0-105.8-47.5-105.8-105.8c0-58.3,47.5-105.8,105.8-105.8c58.3,0,105.8,47.5,105.8,105.8
					C399.8,557,352.3,604.5,294,604.5z M294,411.5c-48.1,0-87.2,39.1-87.2,87.2s39.1,87.2,87.2,87.2c48.1,0,87.2-39.1,87.2-87.2
					S342.1,411.5,294,411.5z"/>
			</g>
		</g>
		<g>
			<g>
				<path class="st0" d="M392.7,724.1H195.3V695c0-54.5,44.2-98.7,98.7-98.7l0,0c54.5,0,98.7,44.2,98.7,98.7V724.1z"/>
			</g>
			<g>
				<path class="st1" d="M392.7,733.4H195.3c-5.1,0-9.3-4.2-9.3-9.3V695c0-59.6,48.5-108,108-108c59.6,0,108,48.5,108,108v29.1
					C402,729.3,397.9,733.4,392.7,733.4z M204.6,714.8h178.9V695c0-49.3-40.1-89.4-89.4-89.4c-49.3,0-89.4,40.1-89.4,89.4V714.8z"/>
			</g>
		</g>
	</g>
	<g>
		<g>
			<g>
				<path class="st0" d="M802.5,498.7c0,53.3-43.2,96.5-96.5,96.5c-53.3,0-96.5-43.2-96.5-96.5c0-53.3,43.2-96.5,96.5-96.5
					C759.2,402.2,802.5,445.4,802.5,498.7z"/>
			</g>
			<g>
				<path class="st1" d="M706,604.5c-58.3,0-105.8-47.5-105.8-105.8c0-58.3,47.5-105.8,105.8-105.8c58.3,0,105.8,47.5,105.8,105.8
					C811.8,557,764.3,604.5,706,604.5z M706,411.5c-48.1,0-87.2,39.1-87.2,87.2s39.1,87.2,87.2,87.2c48.1,0,87.2-39.1,87.2-87.2
					S754,411.5,706,411.5z"/>
			</g>
		</g>
		<g>
			<g>
				<path class="st0" d="M804.7,724.1H607.3V695c0-54.5,44.2-98.7,98.7-98.7l0,0c54.5,0,98.7,44.2,98.7,98.7V724.1z"/>
			</g>
			<g>
				<path class="st1" d="M804.7,733.4H607.3c-5.1,0-9.3-4.2-9.3-9.3V695c0-59.6,48.5-108,108-108c59.6,0,108,48.5,108,108v29.1
					C814,729.3,809.8,733.4,804.7,733.4z M616.6,714.8h178.9V695c0-49.3-40.1-89.4-89.4-89.4c-49.3,0-89.4,40.1-89.4,89.4V714.8z"/>
			</g>
		</g>
	</g>
	<g>
		<g>
			<g>
				<path class="st0" d="M627.8,522c0,70.6-57.2,127.8-127.8,127.8c-70.6,0-127.8-57.2-127.8-127.8S429.4,394.2,500,394.2
					C570.6,394.2,627.8,451.4,627.8,522z"/>
			</g>
			<g>
				<path class="st1" d="M500,659.1c-75.6,0-137.1-61.5-137.1-137.1S424.4,384.9,500,384.9c75.6,0,137.1,61.5,137.1,137.1
					S575.6,659.1,500,659.1z M500,403.5c-65.3,0-118.5,53.1-118.5,118.5c0,65.3,53.2,118.5,118.5,118.5
					c65.3,0,118.5-53.1,118.5-118.5C618.5,456.7,565.3,403.5,500,403.5z"/>
			</g>
		</g>
		<g>
			<g>
				<path class="st2" d="M630.8,820.6H369.2v-38.5c0-72.2,58.6-130.8,130.8-130.8l0,0c72.2,0,130.8,58.5,130.8,130.8V820.6z"/>
			</g>
			<g>
				<path class="st1" d="M630.8,829.9H369.2c-5.1,0-9.3-4.2-9.3-9.3v-38.5c0-77.2,62.9-140.1,140.1-140.1
					c77.2,0,140.1,62.8,140.1,140.1v38.5C640.1,825.7,635.9,829.9,630.8,829.9z M378.5,811.3h243v-29.2c0-67-54.5-121.5-121.5-121.5
					c-67,0-121.5,54.5-121.5,121.5V811.3z"/>
			</g>
		</g>
	</g>
	<g>
		<g>
			<path class="st2" d="M541.3,311.7c-1,0-2-0.3-2.8-0.9l-38.5-28l-38.5,28c-0.8,0.6-1.8,0.9-2.8,0.9s-2-0.3-2.8-0.9
				c-1.7-1.2-2.4-3.4-1.8-5.4l14.7-45.2l-38.5-28c-1.7-1.2-2.4-3.4-1.8-5.4c0.7-2,2.5-3.3,4.6-3.3h47.5l14.7-45.3
				c0.7-2,2.5-3.3,4.6-3.3c2.1,0,3.9,1.3,4.6,3.3l14.7,45.3h47.5c2.1,0,3.9,1.3,4.6,3.3c0.6,2-0.1,4.2-1.8,5.4l-38.5,28l14.7,45.2
				c0.6,2-0.1,4.2-1.8,5.4C543.3,311.4,542.3,311.7,541.3,311.7z"/>
		</g>
		<g>
			<path class="st1" d="M500,179.8l15.8,48.6h51.1l-41.3,30l15.8,48.6l-41.3-30l-41.3,30l15.8-48.6l-41.3-30h51.1L500,179.8
				 M500,170.1c-4.2,0-7.9,2.7-9.2,6.7l-13.6,41.9h-44c-4.2,0-7.9,2.7-9.2,6.7c-1.3,4,0.1,8.3,3.5,10.8l35.6,25.9l-13.6,41.9
				c-1.3,4,0.1,8.3,3.5,10.8c1.7,1.2,3.7,1.8,5.7,1.8s4-0.6,5.7-1.8l35.6-25.9l35.6,25.9c1.7,1.2,3.7,1.8,5.7,1.8c2,0,4-0.6,5.7-1.8
				c3.4-2.5,4.8-6.8,3.5-10.8L536.8,262l35.6-25.9c3.4-2.5,4.8-6.8,3.5-10.8c-1.3-4-5-6.7-9.2-6.7h-44l-13.6-41.9
				C507.9,172.8,504.2,170.1,500,170.1L500,170.1z"/>
		</g>
	</g>
	<g>
		<g>
			<path class="st2" d="M379.3,359.9c-1,0-2-0.3-2.8-0.9l-33.9-24.6L308.7,359c-0.8,0.6-1.8,0.9-2.8,0.9c-1,0-2-0.3-2.8-0.9
				c-1.7-1.2-2.4-3.4-1.8-5.4l12.9-39.8l-33.9-24.6c-1.7-1.2-2.4-3.4-1.8-5.4c0.7-2,2.5-3.3,4.6-3.3h41.9l13-39.8
				c0.7-2,2.5-3.3,4.6-3.3c2.1,0,3.9,1.3,4.6,3.3l13,39.8H402c2.1,0,3.9,1.3,4.6,3.3c0.6,2-0.1,4.2-1.8,5.4L371,313.8l12.9,39.8
				c0.6,2-0.1,4.2-1.8,5.4C381.3,359.7,380.3,359.9,379.3,359.9z"/>
		</g>
		<g>
			<path class="st1" d="M342.6,242.1l14,43.2H402l-36.7,26.7l14,43.2l-36.7-26.7l-36.7,26.7l14-43.2l-36.7-26.7h45.4L342.6,242.1
				 M342.6,232.4c-4.2,0-7.9,2.7-9.2,6.7l-11.9,36.5h-38.4c-4.2,0-7.9,2.7-9.2,6.7c-1.3,4,0.1,8.3,3.5,10.8l31.1,22.6l-11.9,36.5
				c-1.3,4,0.1,8.3,3.5,10.8c1.7,1.2,3.7,1.8,5.7,1.8c2,0,4-0.6,5.7-1.8l31.1-22.6l31.1,22.6c1.7,1.2,3.7,1.8,5.7,1.8
				c2,0,4-0.6,5.7-1.8c3.4-2.5,4.8-6.8,3.5-10.8l-11.9-36.5l31.1-22.6c3.4-2.5,4.8-6.8,3.5-10.8c-1.3-4-5-6.7-9.2-6.7h-38.4
				l-11.9-36.5C350.5,235.1,346.8,232.4,342.6,232.4L342.6,232.4z"/>
		</g>
	</g>
	<g>
		<g>
			<path class="st2" d="M694.2,359.9c-1,0-2-0.3-2.8-0.9l-33.9-24.6L623.6,359c-0.8,0.6-1.8,0.9-2.8,0.9c-1,0-2-0.3-2.8-0.9
				c-1.7-1.2-2.4-3.4-1.8-5.4l13-39.8l-33.9-24.6c-1.7-1.2-2.4-3.4-1.8-5.4c0.7-2,2.5-3.3,4.6-3.3H640l13-39.8
				c0.7-2,2.5-3.3,4.6-3.3l0,0c2.1,0,3.9,1.3,4.6,3.3l12.9,39.8h41.9c2.1,0,3.9,1.3,4.6,3.3c0.6,2-0.1,4.2-1.8,5.4l-33.9,24.6
				l12.9,39.8c0.6,2-0.1,4.2-1.8,5.4C696.2,359.7,695.2,359.9,694.2,359.9z"/>
		</g>
		<g>
			<path class="st1" d="M657.5,242.1l14,43.2h45.4l-36.7,26.7l14,43.2l-36.7-26.7l-36.7,26.7l14-43.2l-36.7-26.7h45.4L657.5,242.1
				 M657.5,232.4c-4.2,0-7.9,2.7-9.2,6.7l-11.9,36.5h-38.4c-4.2,0-7.9,2.7-9.2,6.7c-1.3,4,0.1,8.3,3.5,10.8l31.1,22.6l-11.9,36.5
				c-1.3,4,0.1,8.3,3.5,10.8c1.7,1.2,3.7,1.8,5.7,1.8c2,0,4-0.6,5.7-1.8l31.1-22.6l31.1,22.6c1.7,1.2,3.7,1.8,5.7,1.8
				c2,0,4-0.6,5.7-1.8c3.4-2.5,4.8-6.8,3.5-10.8l-11.9-36.5l31.1-22.6c3.4-2.5,4.8-6.8,3.5-10.8c-1.3-4-5-6.7-9.2-6.7h-38.4
				l-11.9-36.5C665.4,235.1,661.7,232.4,657.5,232.4L657.5,232.4z"/>
		</g>
	</g>
</g>
</svg>