<?xml version="1.0" encoding="utf-8"?>
<!-- Generator: Adobe Illustrator 27.3.1, SVG Export Plug-In . SVG Version: 6.00 Build 0)  -->
<svg version="1.1" id="Layer_1" xmlns="http://www.w3.org/2000/svg" xmlns:xlink="http://www.w3.org/1999/xlink" x="0px" y="0px"
	 viewBox="0 0 1000 1000" style="enable-background:new 0 0 1000 1000;" xml:space="preserve">
<style type="text/css">
	.st0{fill:#231F20;stroke:#231F20;stroke-miterlimit:10;}
</style>
<g>
	<g>
		<path class="st0" d="M570.6,690.61H428.84c-3.64,0-7.67-1.68-10.26-4.28c-3.79-3.79-4.28-7.78-4.28-10.82
			c0-0.42,0.05-0.83,0.15-1.23c0.75-6.28,0.59-51.5-20.35-72.44c-34.06-30.01-53.72-73.75-53.72-119.79
			c0-88.02,71.6-159.62,159.62-159.62s159.62,71.61,159.62,159.62c0,44.49-19.24,87.61-52.79,118.29l-1.5,1.5
			c-21.58,21.58-20.41,68.07-20.21,73.3c0,0.07,0.01,0.3,0.01,0.37c0,4.04-1.64,8.18-4.27,10.82
			C578.07,689.13,574.52,690.61,570.6,690.61z M424.48,676.04c0.06,1.46,0.37,2.19,1.29,3.1c0.66,0.66,2.16,1.29,3.07,1.29H570.6
			c1.21,0,2.19-0.41,3.07-1.29c0.64-0.64,1.29-2.1,1.29-3.63c-0.36-9.25-0.95-56.74,23.18-80.86l1.66-1.66
			c31.61-28.92,49.64-69.3,49.64-110.94c0-82.41-67.04-149.45-149.45-149.45s-149.45,67.04-149.45,149.45
			c0,42.49,18.88,84.5,50.51,112.38c22.08,22.07,23.73,62.75,23.72,74.7C424.78,672.57,424.71,674.65,424.48,676.04z M419.38,675.51
			h0.03H419.38z"/>
	</g>
	<g>
		<path class="st0" d="M564.22,744.53H435.79c-11.92,0-21.61-9.69-21.61-21.61c0-11.93,9.7-21.64,21.61-21.64h128.43
			c11.92,0,21.61,9.71,21.61,21.64C585.83,734.84,576.14,744.53,564.22,744.53z M435.79,711.45c-6.31,0-11.44,5.14-11.44,11.47
			c0,6.31,5.13,11.44,11.44,11.44h128.43c6.31,0,11.44-5.13,11.44-11.44c0-6.32-5.13-11.47-11.44-11.47H435.79z"/>
	</g>
	<g>
		<path class="st0" d="M546.18,796.63h-92.35c-11.92,0-21.61-9.69-21.61-21.61c0-11.93,9.69-21.64,21.61-21.64h92.35
			c11.92,0,21.61,9.71,21.61,21.64C567.79,786.93,558.1,796.63,546.18,796.63z M453.83,763.55c-6.31,0-11.44,5.14-11.44,11.47
			c0,6.31,5.13,11.44,11.44,11.44h92.35c6.31,0,11.44-5.13,11.44-11.44c0-6.32-5.13-11.47-11.44-11.47H453.83z"/>
	</g>
	<g>
		<path class="st0" d="M500,261.79c-2.81,0-5.09-2.28-5.09-5.09v-67.19c0-2.81,2.28-5.09,5.09-5.09c2.81,0,5.09,2.28,5.09,5.09
			v67.19C505.09,259.51,502.81,261.79,500,261.79z"/>
	</g>
	<g>
		<path class="st0" d="M387.67,291.89c-1.76,0-3.47-0.91-4.41-2.54l-33.58-58.18c-1.4-2.43-0.57-5.54,1.86-6.95
			c2.43-1.4,5.54-0.57,6.95,1.86l33.58,58.18c1.4,2.43,0.57,5.54-1.86,6.95C389.41,291.67,388.54,291.89,387.67,291.89z"/>
	</g>
	<g>
		<path class="st0" d="M305.44,374.12c-0.86,0-1.74-0.22-2.54-0.68l-58.18-33.58c-2.43-1.4-3.27-4.52-1.86-6.95
			c1.4-2.44,4.52-3.27,6.95-1.86l58.18,33.58c2.43,1.4,3.27,4.52,1.86,6.95C308.9,373.2,307.19,374.12,305.44,374.12z"/>
	</g>
	<g>
		<path class="st0" d="M275.34,486.45h-67.19c-2.81,0-5.09-2.28-5.09-5.09s2.28-5.09,5.09-5.09h67.19c2.81,0,5.09,2.28,5.09,5.09
			S278.15,486.45,275.34,486.45z"/>
	</g>
	<g>
		<path class="st0" d="M247.27,632.36c-1.76,0-3.47-0.91-4.41-2.54c-1.4-2.43-0.57-5.54,1.86-6.95l58.18-33.58
			c2.43-1.4,5.55-0.57,6.95,1.86c1.4,2.43,0.57,5.54-1.86,6.95l-58.18,33.58C249,632.14,248.13,632.36,247.27,632.36z"/>
	</g>
	<g>
		<path class="st0" d="M752.74,632.36c-0.86,0-1.74-0.22-2.54-0.68l-58.18-33.58c-2.43-1.4-3.27-4.52-1.86-6.95
			c1.4-2.44,4.52-3.26,6.95-1.86l58.18,33.58c2.43,1.4,3.27,4.52,1.86,6.95C756.2,631.45,754.49,632.36,752.74,632.36z"/>
	</g>
	<g>
		<path class="st0" d="M791.85,486.45h-67.19c-2.81,0-5.09-2.28-5.09-5.09s2.28-5.09,5.09-5.09h67.19c2.81,0,5.09,2.28,5.09,5.09
			S794.66,486.45,791.85,486.45z"/>
	</g>
	<g>
		<path class="st0" d="M694.57,374.12c-1.76,0-3.47-0.91-4.41-2.54c-1.4-2.43-0.57-5.54,1.86-6.95l58.18-33.58
			c2.43-1.4,5.55-0.57,6.95,1.86c1.4,2.43,0.57,5.54-1.86,6.95l-58.18,33.58C696.31,373.9,695.43,374.12,694.57,374.12z"/>
	</g>
	<g>
		<path class="st0" d="M612.33,291.89c-0.86,0-1.74-0.22-2.54-0.68c-2.43-1.4-3.27-4.52-1.86-6.95l33.58-58.18
			c1.4-2.44,4.52-3.27,6.95-1.86c2.43,1.4,3.27,4.52,1.86,6.95l-33.58,58.18C615.8,290.97,614.09,291.89,612.33,291.89z"/>
	</g>
	<g>
		<path class="st0" d="M503.77,621.7c-15.78,0-28.62-12.82-28.62-28.59c0-15.78,12.84-28.62,28.62-28.62
			c15.76,0,28.59,12.84,28.59,28.62C532.35,608.88,519.53,621.7,503.77,621.7z M503.77,574.66c-10.17,0-18.45,8.28-18.45,18.45
			c0,10.15,8.28,18.41,18.45,18.41c10.15,0,18.42-8.26,18.42-18.41C522.18,582.94,513.92,574.66,503.77,574.66z M505.71,557.67
			h-3.91c-11.57,0-21.44-9.4-22.01-20.95l-6.07-123.96c-0.28-5.69,1.7-11.07,5.57-15.14c3.87-4.07,9.14-6.31,14.84-6.31h19.25
			c5.71,0,10.99,2.25,14.87,6.32c3.87,4.07,5.85,9.45,5.57,15.13l-6.1,123.96v0C527.15,548.27,517.27,557.67,505.71,557.67z
			 M494.13,401.48c-2.89,0-5.54,1.12-7.47,3.15c-1.93,2.03-2.92,4.74-2.78,7.63l6.07,123.96c0.3,6.11,5.73,11.28,11.85,11.28h3.91
			c6.12,0,11.55-5.17,11.85-11.28l6.1-123.96c0.14-2.88-0.85-5.58-2.78-7.62c-1.94-2.04-4.61-3.16-7.5-3.16H494.13z M522.64,536.47
			h0.03H522.64z"/>
	</g>
	<g>
		<path class="st0" d="M527.27,815.58h-52.98c-2.81,0-5.09-2.28-5.09-5.09s2.28-5.09,5.09-5.09h52.98c2.81,0,5.09,2.28,5.09,5.09
			S530.08,815.58,527.27,815.58z"/>
	</g>
</g>
</svg>