<?xml version="1.0" encoding="utf-8"?>
<!-- Generator: Adobe Illustrator 27.3.1, SVG Export Plug-In . SVG Version: 6.00 Build 0)  -->
<svg version="1.1" id="Layer_1" xmlns="http://www.w3.org/2000/svg" xmlns:xlink="http://www.w3.org/1999/xlink" x="0px" y="0px"
	 viewBox="0 0 1000 1000" style="enable-background:new 0 0 1000 1000;" xml:space="preserve">
<style type="text/css">
	.st0{fill:#FFFFFF;}
	.st1{fill:#222A35;}
	.st2{fill:#DC143C;}
</style>
<g>
	<g>
		<path class="st0" d="M477.7,712.9h-17.5c-10,0-18-8.1-18-18v-37.2c-1.7-21.1-22.5-39.8-36.1-56.7c-12.2-15-25.8-28.8-36.7-44.9
			c-11.5-17-19.2-35.5-22.2-55.6c-1.7-10.9-2.6-22.1-1.8-33c1.6-20.1,5.5-39.7,14.5-58.2c8.2-16.9,18.3-32.3,31.6-45.2
			c22.3-21.7,48.6-36,79.5-41.7c13.1-2.4,26.3-3.9,39.5-2.8c15.9,1.4,31.5,4.9,46.5,10.8c16.1,6.4,30.4,15.5,43.5,26.8
			c27.7,23.8,44.6,53.6,51.2,89.4c2.1,11.2,3.7,22.3,3,33.7c-1,18-3.3,35.8-10.9,52.3c-5.8,12.5-13,24.4-21.7,35.2
			c-9.6,11.8-19.9,23-29.5,34.7c-10.9,13.3-30.7,28.4-33.5,45.4c-0.7,4-1.1,8-1.3,12.1v34.9c0,10-8.1,18-18,18h-17.5H477.7z"/>
		<path class="st1" d="M539.8,722.6h-79.6c-15.3,0-27.7-12.4-27.7-27.7v-37.2c-1-12.8-13-26.5-24.6-39.7c-3.2-3.7-6.4-7.3-9.3-10.9
			c-4.1-5-8.4-9.9-12.6-14.8c-8.4-9.7-17-19.6-24.6-30.7c-12.6-18.5-20.6-38.6-23.8-59.6c-2-13.3-2.7-24.8-1.8-35.2
			c1.9-23.9,6.9-44.1,15.4-61.7c9.4-19.5,20.4-35.1,33.6-47.9c24.1-23.4,52.5-38.3,84.4-44.2c16.8-3.1,29.7-4,42.1-2.9
			c17.3,1.6,33.9,5.4,49.3,11.5c16.5,6.5,31.6,15.8,46.2,28.4c29.1,25,47.4,56.9,54.4,94.9c2.1,11.4,3.9,23.5,3.2,36
			c-1,17.1-3.2,37.2-11.8,55.8c-6.4,13.7-14.1,26.2-23,37.2c-5,6.2-10.3,12.2-15.5,18.3c-4.7,5.5-9.5,10.9-14,16.5
			c-3.1,3.8-7,7.8-11,11.9c-8.9,9.2-18.9,19.6-20.5,29c-0.6,3.7-1,7.4-1.2,11.1l0,34.2C567.5,710.2,555.1,722.6,539.8,722.6z
			 M501.3,328.9c-8.3,0-17.4,0.9-28.5,3c-28.1,5.3-53.2,18.4-74.5,39.1c-11.6,11.2-21.3,25.2-29.7,42.5c-7.5,15.6-11.8,33-13.5,54.8
			c-0.7,8.9-0.1,19,1.7,30.8c2.8,18.2,9.7,35.6,20.7,51.7c6.9,10.1,14.8,19.2,23.2,28.9c4.4,5,8.8,10.1,13,15.3
			c2.7,3.3,5.7,6.8,8.8,10.3c13,14.8,27.8,31.7,29.4,51.7l0,38c0,4.7,3.7,8.4,8.4,8.4h79.6c4.6,0,8.4-3.8,8.4-8.4V660
			c0.3-5,0.8-9.4,1.5-13.7c2.5-15.2,14.8-27.9,25.6-39.1c3.6-3.7,7.1-7.3,9.9-10.8c4.7-5.7,9.5-11.3,14.4-16.9
			c5.1-5.9,10.2-11.8,15.1-17.8c7.9-9.7,14.8-20.9,20.5-33.2c7.3-15.6,9.1-32.7,10-48.8c0.6-9.8-0.7-19.7-2.9-31.4
			c-6.3-34-22-61.4-48-83.8c-13-11.2-26.3-19.4-40.8-25.1c-13.7-5.4-28.4-8.8-43.8-10.2C506.9,329,504.2,328.9,501.3,328.9z"/>
	</g>
	<g>
		<g>
			<g>
				<rect x="416.4" y="717" class="st2" width="167.2" height="100.5"/>
			</g>
			<g>
				<path class="st1" d="M583.6,826.8H416.4c-5.1,0-9.3-4.2-9.3-9.3V717c0-5.1,4.2-9.3,9.3-9.3h167.2c5.1,0,9.3,4.2,9.3,9.3v100.5
					C592.9,822.7,588.7,826.8,583.6,826.8z M425.7,808.2h148.6v-81.9H425.7V808.2z"/>
			</g>
		</g>
	</g>
	<g>
		<g>
			<path class="st1" d="M500,258.8c-5.3,0-9.7-4.3-9.7-9.7v-66.4c0-5.3,4.3-9.7,9.7-9.7s9.7,4.3,9.7,9.7v66.4
				C509.6,254.5,505.3,258.8,500,258.8z"/>
		</g>
		<g>
			<path class="st1" d="M389,288.6c-3.3,0-6.6-1.7-8.4-4.9l-33.2-57.5c-2.7-4.6-1.1-10.5,3.5-13.1c4.6-2.7,10.5-1.1,13.2,3.5
				l33.2,57.5c2.7,4.6,1.1,10.5-3.5,13.1C392.3,288.1,390.7,288.6,389,288.6z"/>
		</g>
		<g>
			<path class="st1" d="M307.9,369.8c-1.6,0-3.3-0.4-4.8-1.3l-57.5-33.2c-4.6-2.6-6.2-8.5-3.5-13.1c2.7-4.7,8.6-6.3,13.2-3.5
				l57.5,33.2c4.6,2.6,6.2,8.5,3.5,13.1C314.4,368,311.2,369.8,307.9,369.8z"/>
		</g>
		<g>
			<path class="st1" d="M278.1,480.7h-66.3c-5.3,0-9.7-4.3-9.7-9.7s4.3-9.7,9.7-9.7h66.3c5.3,0,9.7,4.3,9.7,9.7
				S283.4,480.7,278.1,480.7z"/>
		</g>
		<g>
			<path class="st1" d="M250.4,624.8c-3.3,0-6.6-1.7-8.4-4.9c-2.7-4.6-1.1-10.5,3.5-13.1l57.5-33.2c4.6-2.7,10.5-1.1,13.2,3.5
				c2.7,4.6,1.1,10.5-3.5,13.1l-57.5,33.2C253.7,624.4,252,624.8,250.4,624.8z"/>
		</g>
		<g>
			<path class="st1" d="M749.6,624.8c-1.6,0-3.3-0.4-4.8-1.3l-57.5-33.2c-4.6-2.6-6.2-8.5-3.5-13.1c2.7-4.7,8.6-6.3,13.2-3.5
				l57.5,33.2c4.6,2.6,6.2,8.5,3.5,13.1C756.2,623,752.9,624.8,749.6,624.8z"/>
		</g>
		<g>
			<path class="st1" d="M788.2,480.7h-66.4c-5.3,0-9.7-4.3-9.7-9.7s4.3-9.7,9.7-9.7h66.4c5.3,0,9.7,4.3,9.7,9.7
				S793.5,480.7,788.2,480.7z"/>
		</g>
		<g>
			<path class="st1" d="M692.1,369.8c-3.3,0-6.6-1.7-8.4-4.9c-2.7-4.6-1.1-10.5,3.5-13.1l57.5-33.2c4.6-2.7,10.5-1.1,13.2,3.5
				c2.7,4.6,1.1,10.5-3.5,13.1L697,368.4C695.4,369.3,693.8,369.8,692.1,369.8z"/>
		</g>
		<g>
			<path class="st1" d="M610.9,288.6c-1.6,0-3.3-0.4-4.8-1.3c-4.6-2.6-6.2-8.5-3.5-13.1l33.2-57.5c2.7-4.7,8.6-6.2,13.2-3.5
				c4.6,2.6,6.2,8.5,3.5,13.1l-33.2,57.5C617.5,286.8,614.2,288.6,610.9,288.6z"/>
		</g>
	</g>
	<g>
		<path class="st0" d="M520.4,712.9V515.3c0-15,12.2-27.2,27.2-27.2c15,0,27.2,12.2,27.2,27.2c0,15-12.2,27.2-27.2,27.2h-95.2
			c-15,0-27.2-12.2-27.2-27.2c0-15,12.2-27.2,27.2-27.2c15,0,27.2,12.2,27.2,27.2v197.6H520.4z"/>
		<path class="st1" d="M530.1,722.6h-60.2V552.1h-17.5c-20.3,0-36.8-16.5-36.8-36.8s16.5-36.8,36.8-36.8c20.3,0,36.9,16.5,36.9,36.8
			v17.5h21.5v-17.5c0-20.3,16.5-36.8,36.8-36.8s36.8,16.5,36.8,36.8s-16.5,36.8-36.8,36.8h-17.5V722.6z M489.2,703.3h21.5V552.1
			h-21.5V703.3z M530.1,532.8h17.5c9.7,0,17.5-7.9,17.5-17.5s-7.9-17.5-17.5-17.5c-9.7,0-17.5,7.9-17.5,17.5V532.8z M452.4,497.8
			c-9.7,0-17.5,7.9-17.5,17.5s7.9,17.5,17.5,17.5h17.5v-17.5C469.9,505.6,462.1,497.8,452.4,497.8z"/>
	</g>
</g>
</svg>