<?xml version="1.0" encoding="utf-8"?>
<!-- Generator: Adobe Illustrator 27.3.1, SVG Export Plug-In . SVG Version: 6.00 Build 0)  -->
<svg version="1.1" id="Layer_1" xmlns="http://www.w3.org/2000/svg" xmlns:xlink="http://www.w3.org/1999/xlink" x="0px" y="0px"
	 viewBox="0 0 1000 1000" style="enable-background:new 0 0 1000 1000;" xml:space="preserve">
<style type="text/css">
	.st0{fill:#231F20;stroke:#231F20;stroke-miterlimit:10;}
</style>
<g>
	<g>
		<path class="st0" d="M438.63,815.55c-7.44,0-11.86-5.55-16.14-14.45c-0.73-1.51-0.66-3.28,0.17-4.74c0.52-0.9,1.03-1.89,1.56-2.91
			c1.37-2.63,2.93-5.62,5.07-8.36c13.05-16.66,24.82-34.63,34.99-53.43c7.7-14.3,12.41-27.81,14.4-41.29
			c1.28-8.73-3.49-24.63-9.46-31.5c-1.64-1.89-2.99-2.55-3.53-2.54c-0.26-0.01-0.49-0.03-0.69-0.05
			c-12.68,5.99-21.7-0.98-27.47-6.86c-29.61-30.01-57.43-57.73-85.05-84.74c-5.7-5.56-15.94-15.56-7.94-28.47
			c-10.82-15.07-21.75-16.4-38.69-13.49c-21.56,3.73-40.65,15.18-56.85,25.61c-9.41,6.05-18.72,12.79-27.71,19.31
			c-2.65,1.92-5.29,3.83-7.94,5.74c-4.4,3.15-10.23,6.57-16.44,4.98c-6.44-1.65-10.23-8.02-12.8-13.39
			c-0.6-1.24-0.66-2.68-0.18-3.97c0.31-0.83,0.62-1.72,0.94-2.64c0.83-2.37,1.78-5.06,2.98-7.71c17.94-39.27,38.1-71.58,61.62-98.77
			c29.83-34.47,59.08-57.73,92.04-73.19c26.63-12.53,52.01-17.21,77.59-14.31c6.51,0.74,12.71,2.36,19.28,4.07
			c2.08,0.54,4.2,1.09,6.36,1.63l2.6-2.89c4.33-4.82,8.95-9.96,13.48-15.17c21.77-24.92,46.15-48.05,74.55-70.71
			c29.73-23.7,61.68-43.92,94.99-60.09c29.69-14.41,62.14-24.53,99.22-30.95c22.69-3.88,43.57-5.77,63.84-5.77c0.16,0,0.31,0,0.47,0
			l1.82-0.02c1.38-0.02,2.77-0.04,4.15,0.03c11.4,0.56,16.8,6.06,16.51,16.83l-0.19,7.77c-0.32,14.12-0.66,28.73-2.35,43.07
			c-2.55,21.71-7.18,43.9-14.15,67.83c-9.79,33.54-23.94,65.16-42.08,93.98c-18.15,28.91-39.05,56.43-62.13,81.8
			c-18.23,20.03-39.26,39.74-64.25,60.25c-0.03,0.03-0.06,0.06-0.1,0.09c0.63,3.46,1.28,6.74,1.9,9.9
			c1.59,8.06,3.08,15.68,3.82,23.69c1.94,21.66-2.73,43.86-14.68,69.87c-10.04,21.79-23.77,41.98-41.97,61.75
			c-34.19,37.09-77.16,67.04-131.36,91.57C444.86,814.71,441.52,815.55,438.63,815.55z M432.81,799c4.19,8.11,5.93,7.32,11.82,4.65
			c52.94-23.96,94.84-53.13,128.08-89.2c17.47-18.97,30.62-38.31,40.21-59.11c11.19-24.33,15.57-44.89,13.79-64.7
			c-0.69-7.49-2.07-14.51-3.67-22.65c-0.33-1.66-0.66-3.35-0.99-5.08c-31.16,20.73-103.52,66.89-146.17,88.16
			c0.35,0.35,0.69,0.73,1.03,1.12c7.91,9.11,13.56,28.01,11.85,39.66c-2.17,14.67-7.24,29.27-15.51,44.64
			c-10.45,19.31-22.54,37.77-35.93,54.87c-1.56,2-2.83,4.44-4.06,6.8C433.1,798.44,432.96,798.72,432.81,799z M354.6,539.62
			c-4.68,5.69-3.63,9.37,4.99,17.79c27.66,27.06,55.53,54.82,85.19,84.88c6.42,6.53,10.61,7.66,16.61,4.44
			c0.02-0.01,0.03-0.02,0.05-0.02c0.3-0.18,0.61-0.32,0.91-0.43c39.56-18,123.35-71.03,160.06-95.84l1.79-1.77
			c0.12-0.12,0.25-0.24,0.38-0.34c24.7-20.25,45.43-39.68,63.37-59.39c22.67-24.92,43.21-51.96,61.04-80.37
			c17.63-28.03,31.4-58.78,40.92-91.42c6.82-23.38,11.34-45.03,13.82-66.17c1.64-13.87,1.97-28.23,2.29-42.12l0.19-7.81
			c0.12-4.58-0.38-6.08-6.84-6.4c-1.16-0.06-2.32-0.03-3.49-0.02l-1.99,0.02c-0.15,0-0.3,0-0.45,0c-19.69,0-40.02,1.84-62.12,5.62
			c-36.11,6.25-67.68,16.09-96.5,30.07c-32.63,15.85-63.95,35.66-93.09,58.89c-27.92,22.28-51.88,44.99-73.23,69.44
			c-4.55,5.24-9.22,10.43-13.59,15.29l-4.58,5.1c-0.06,0.07-0.13,0.14-0.2,0.21c0,0-0.01,0-0.01,0.01c0,0-0.01,0-0.01,0.01
			c-16.95,16.95-77.08,117.91-94.66,158.93c-0.07,0.16-0.14,0.32-0.23,0.47C355.05,539.05,354.84,539.35,354.6,539.62z
			 M194.23,562.43c2.38,4.48,4.13,5.79,5.21,6.07c1.09,0.28,3.37-0.08,7.98-3.39c2.64-1.89,5.27-3.8,7.9-5.71
			c9.11-6.6,18.52-13.42,28.17-19.63c17.04-10.98,37.18-23.03,60.63-27.08c18.24-3.14,32.62-1.8,45.56,13.57
			c19.35-41.25,66.66-120.77,87.61-147.59c-0.49-0.13-0.99-0.26-1.48-0.38c-6.21-1.62-12.08-3.15-17.87-3.81
			c-23.66-2.68-47.24,1.71-72.11,13.41c-31.63,14.84-59.8,37.28-88.67,70.64c-22.88,26.45-42.53,57.96-60.06,96.33
			c-1.01,2.22-1.84,4.58-2.64,6.86C194.4,561.97,194.31,562.2,194.23,562.43z"/>
	</g>
	<g>
		<path class="st0" d="M596.84,459.25c-13.1,0-26.21-4.99-36.19-14.97c-19.96-19.96-19.95-52.43,0-72.38
			c19.95-19.95,52.42-19.96,72.38,0c9.66,9.66,14.99,22.52,14.99,36.19c0,13.67-5.33,26.53-14.99,36.19
			C623.06,454.26,609.95,459.25,596.84,459.25z M596.84,367.1c-10.5,0-21,4-29,11.99c-15.99,15.99-15.99,42,0,57.99
			c16,15.99,42.01,15.99,58,0l0,0c7.74-7.74,12.01-18.04,12.01-29c0-10.96-4.27-21.25-12.01-29
			C617.85,371.1,607.35,367.1,596.84,367.1z"/>
	</g>
	<g>
		<path class="st0" d="M481.27,550.15c-7.06,0-13.71-2.76-18.71-7.76c-5-5-7.76-11.65-7.76-18.71c0-7.06,2.76-13.71,7.76-18.71
			c5-5,11.65-7.76,18.71-7.76s13.71,2.76,18.71,7.76c5,5,7.76,11.65,7.76,18.71c0,7.06-2.76,13.71-7.76,18.71l0,0
			C494.98,547.39,488.33,550.15,481.27,550.15z M481.27,507.38c-4.35,0-8.44,1.7-11.52,4.78c-3.08,3.08-4.78,7.17-4.78,11.52
			c0,4.35,1.7,8.44,4.78,11.52c3.08,3.08,7.17,4.78,11.52,4.78s8.44-1.7,11.52-4.78c3.08-3.08,4.78-7.17,4.78-11.52
			c0-4.35-1.7-8.44-4.78-11.52C489.7,509.08,485.61,507.38,481.27,507.38z M496.38,538.79h0.03H496.38z"/>
	</g>
	<g>
		<path class="st0" d="M388.05,705.74c-4.19,0-8.36-1.62-11.51-4.79l0,0c0,0,0,0,0,0l-77.05-77.08c-5.66-5.61-6.41-14.43-1.77-20.94
			l28.38-39.84c0.87-1.22,2.23-1.99,3.72-2.12c1.52-0.12,2.96,0.42,4.02,1.47l104.43,104.43c1.06,1.06,1.6,2.54,1.47,4.04
			c-0.13,1.5-0.92,2.86-2.15,3.72l-40.22,28.13C394.55,704.77,391.29,705.74,388.05,705.74z M330.9,573.89L306,608.84
			c-1.74,2.44-1.46,5.73,0.66,7.83l77.06,77.09c0,0,0,0,0,0c2.11,2.11,5.39,2.39,7.8,0.69l35.26-24.67L330.9,573.89z"/>
	</g>
	<g>
		<path class="st0" d="M772.27,370.58c-1.3,0-2.6-0.5-3.6-1.49L629,229.39c-1.99-1.99-1.99-5.21,0-7.19c1.99-1.99,5.21-1.99,7.19,0
			l139.67,139.7c1.99,1.99,1.99,5.21,0,7.19C774.87,370.08,773.57,370.58,772.27,370.58z"/>
	</g>
	<g>
		<path class="st0" d="M763.1,399.86c-1.3,0-2.6-0.5-3.6-1.49L603.72,242.58c-1.99-1.99-1.99-5.21,0-7.19
			c1.99-1.99,5.21-1.99,7.19,0L766.7,391.18c1.99,1.99,1.99,5.21,0,7.19C765.7,399.37,764.4,399.86,763.1,399.86z"/>
	</g>
	<g>
		<path class="st0" d="M238.13,723.53c-1.3,0-2.6-0.5-3.6-1.49c-1.99-1.99-1.99-5.21,0-7.19l56.36-56.36c1.99-1.99,5.21-1.99,7.19,0
			c1.99,1.99,1.99,5.21,0,7.19l-56.36,56.36C240.73,723.03,239.43,723.53,238.13,723.53z"/>
	</g>
	<g>
		<path class="st0" d="M246.77,759.21c-1.3,0-2.6-0.5-3.6-1.49c-1.99-1.99-1.99-5.21,0-7.19l69.88-69.88c1.99-1.99,5.21-1.99,7.19,0
			c1.99,1.99,1.99,5.21,0,7.19l-69.88,69.88C249.37,758.72,248.07,759.21,246.77,759.21z"/>
	</g>
	<g>
		<path class="st0" d="M283.15,768.52c-1.3,0-2.6-0.5-3.6-1.49c-1.99-1.99-1.99-5.21,0-7.19l56.33-56.36c1.99-1.99,5.21-1.99,7.19,0
			c1.99,1.99,1.99,5.21,0,7.19l-56.33,56.36C285.75,768.03,284.45,768.52,283.15,768.52z"/>
	</g>
	<g>
		<path class="st0" d="M262.05,789.6c-1.3,0-2.6-0.5-3.59-1.49c-1.99-1.99-1.99-5.21-0.01-7.19l1.97-1.97
			c1.99-1.99,5.21-1.99,7.19,0c1.99,1.99,1.99,5.21,0.01,7.19l-1.97,1.97C264.66,789.1,263.35,789.6,262.05,789.6z"/>
	</g>
	<g>
		<path class="st0" d="M216.07,745.59c-1.3,0-2.6-0.5-3.59-1.49c-1.99-1.99-1.99-5.21-0.01-7.19l1.97-1.97
			c1.99-1.99,5.21-1.99,7.19,0c1.99,1.99,1.99,5.21,0.01,7.19l-1.97,1.97C218.67,745.1,217.37,745.59,216.07,745.59z"/>
	</g>
	<g>
		<path class="st0" d="M219.57,786.23c-1.3,0-2.6-0.5-3.6-1.49c-1.99-1.99-1.99-5.21,0-7.19l1.97-1.97c1.99-1.99,5.21-1.99,7.19,0
			c1.99,1.99,1.99,5.21,0,7.19l-1.97,1.97C222.17,785.74,220.87,786.23,219.57,786.23z"/>
	</g>
</g>
</svg>