<?xml version="1.0" encoding="utf-8"?>
<!-- Generator: Adobe Illustrator 27.3.1, SVG Export Plug-In . SVG Version: 6.00 Build 0)  -->
<svg version="1.1" id="Layer_1" xmlns="http://www.w3.org/2000/svg" xmlns:xlink="http://www.w3.org/1999/xlink" x="0px" y="0px"
	 viewBox="0 0 1000 1000" style="enable-background:new 0 0 1000 1000;" xml:space="preserve">
<style type="text/css">
	.st0{fill:#231F20;stroke:#231F20;stroke-miterlimit:10;}
</style>
<g>
	<g>
		<path class="st0" d="M388.33,771.21c-29.24,0-53.03-23.79-53.03-53.03c0-29.24,23.79-53.03,53.03-53.03s53.03,23.79,53.03,53.03
			C441.37,747.42,417.58,771.21,388.33,771.21z M388.33,675.32c-23.63,0-42.86,19.23-42.86,42.86c0,23.63,19.22,42.86,42.86,42.86
			s42.86-19.23,42.86-42.86C431.19,694.55,411.97,675.32,388.33,675.32z"/>
	</g>
	<g>
		<path class="st0" d="M723.95,723.27H442.32c-2.81,0-5.09-2.28-5.09-5.09c0-2.81,2.28-5.09,5.09-5.09h281.62
			c2.81,0,5.09,2.28,5.09,5.09C729.03,720.99,726.75,723.27,723.95,723.27z"/>
	</g>
	<g>
		<path class="st0" d="M336.63,723.28c-62.96,0-114.18-51.22-114.18-114.18s51.22-114.18,114.18-114.18h43.22
			c2.81,0,5.09,2.28,5.09,5.09c0,2.81-2.28,5.09-5.09,5.09h-43.22c-57.35,0-104.01,46.66-104.01,104.01
			c0,57.35,46.66,104.01,104.01,104.01c2.81,0,5.09,2.28,5.09,5.09C341.71,721,339.44,723.28,336.63,723.28z"/>
	</g>
	<g>
		<path class="st0" d="M614.86,505.09H475.75c-2.81,0-5.09-2.28-5.09-5.09c0-2.81,2.28-5.09,5.09-5.09h139.11
			c57.35,0,104.01-46.66,104.01-104.01S672.21,286.9,614.86,286.9h-43.22c-2.81,0-5.09-2.28-5.09-5.09c0-2.81,2.28-5.09,5.09-5.09
			h43.22c62.96,0,114.18,51.22,114.18,114.18S677.82,505.09,614.86,505.09z"/>
	</g>
	<g>
		<path class="st0" d="M475.73,286.9h-248.2c-2.81,0-5.09-2.28-5.09-5.09c0-2.81,2.28-5.09,5.09-5.09h248.2
			c2.81,0,5.09,2.28,5.09,5.09C480.81,284.63,478.53,286.9,475.73,286.9z"/>
	</g>
	<g>
		<path class="st0" d="M179.58,334.85c-29.24,0-53.03-23.79-53.03-53.03c0-29.24,23.79-53.03,53.03-53.03s53.03,23.79,53.03,53.03
			C232.61,311.06,208.82,334.85,179.58,334.85z M179.58,238.96c-23.63,0-42.86,19.23-42.86,42.86c0,23.63,19.23,42.86,42.86,42.86
			s42.86-19.23,42.86-42.86C222.44,258.19,203.21,238.96,179.58,238.96z"/>
	</g>
	<g>
		<path class="st0" d="M523.7,334.85c-29.24,0-53.03-23.79-53.03-53.03c0-29.24,23.79-53.03,53.03-53.03s53.03,23.79,53.03,53.03
			C576.73,311.06,552.94,334.85,523.7,334.85z M523.7,238.96c-23.63,0-42.86,19.23-42.86,42.86c0,23.63,19.23,42.86,42.86,42.86
			c23.63,0,42.86-19.23,42.86-42.86C566.55,258.19,547.33,238.96,523.7,238.96z"/>
	</g>
	<g>
		<path class="st0" d="M427.8,553.03c-29.24,0-53.03-23.79-53.03-53.03c0-29.24,23.79-53.03,53.03-53.03s53.03,23.79,53.03,53.03
			C480.83,529.24,457.04,553.03,427.8,553.03z M427.8,457.14c-23.63,0-42.86,19.23-42.86,42.86c0,23.63,19.23,42.86,42.86,42.86
			c23.63,0,42.86-19.23,42.86-42.86C470.66,476.37,451.43,457.14,427.8,457.14z"/>
	</g>
	<g>
		<path class="st0" d="M748.55,747.84c-16.37,0-29.69-13.3-29.69-29.65c0-16.35,13.32-29.65,29.69-29.65
			c16.35,0,29.65,13.3,29.65,29.65C778.2,734.53,764.9,747.84,748.55,747.84z M748.55,698.7c-10.76,0-19.51,8.74-19.51,19.48
			c0,10.74,8.75,19.48,19.51,19.48c10.74,0,19.48-8.74,19.48-19.48C768.03,707.44,759.29,698.7,748.55,698.7z"/>
	</g>
	<g>
		<path class="st0" d="M748.53,698.69c-2.81,0-5.09-2.28-5.09-5.09V524.36c0-2.81,2.28-5.09,5.09-5.09c2.81,0,5.09,2.28,5.09,5.09
			V693.6C753.62,696.41,751.34,698.69,748.53,698.69z"/>
	</g>
	<g>
		<path class="st0" d="M868.36,606.48H748.53c-2.81,0-5.09-2.28-5.09-5.09s2.28-5.09,5.09-5.09h106.28l-29.89-26.13
			c-1.11-0.97-1.74-2.36-1.74-3.83s0.64-2.86,1.74-3.83l29.88-26.1H748.53c-2.81,0-5.09-2.28-5.09-5.09s2.28-5.09,5.09-5.09h119.83
			c2.12,0,4.02,1.31,4.76,3.3c0.75,1.99,0.18,4.22-1.41,5.62L836,566.34l35.71,31.22c1.6,1.4,2.16,3.63,1.41,5.62
			S870.48,606.48,868.36,606.48z"/>
	</g>
</g>
</svg>