<?xml version="1.0" encoding="utf-8"?>
<!-- Generator: Adobe Illustrator 27.3.1, SVG Export Plug-In . SVG Version: 6.00 Build 0)  -->
<svg version="1.1" id="Layer_1" xmlns="http://www.w3.org/2000/svg" xmlns:xlink="http://www.w3.org/1999/xlink" x="0px" y="0px"
	 viewBox="0 0 1000 1000" style="enable-background:new 0 0 1000 1000;" xml:space="preserve">
<style type="text/css">
	.st0{fill:#231F20;stroke:#231F20;stroke-miterlimit:10;}
</style>
<g>
	<path class="st0" d="M366.89,477.2c3.62,5.66,11.32,9.61,19.1,7.52l31.17-7.86c9.42-2.38,15.13-11.96,12.75-21.38
		c-2.04-8.1-9.39-13.44-17.41-13.28c19.08-28.36,51.46-46.43,86.94-46.43c45.61,0,85.65,29.13,99.59,72.52
		c2.99,9.26,12.89,14.34,22.15,11.38c9.26-2.99,14.34-12.89,11.38-22.15c-18.65-58-72.15-96.97-133.11-96.97
		c-50.48,0-96.26,27.36-120.86,69.56c-5.53-6.98-15.56-8.81-23.23-3.94c-8.2,5.21-10.64,16.09-5.42,24.29l16.88,26.64
		C366.84,477.12,366.86,477.15,366.89,477.2"/>
	<path class="st0" d="M633.36,523.19c-3.6-5.74-11.14-10.08-19.34-7.91l-31.17,7.88c-9.42,2.38-15.13,11.96-12.75,21.38
		c2.01,7.96,9.18,13.28,17.04,13.28c0,0,0.24,0,0.34,0c-19.05,28.36-51.44,46.43-86.92,46.43c-45.64,0-85.65-29.16-99.62-72.55
		c-2.96-9.23-12.89-14.34-22.15-11.35c-9.23,2.96-14.34,12.89-11.35,22.15c18.65,58,72.15,96.94,133.11,96.94
		c50.46,0,96.26-27.36,120.86-69.53c5.53,6.98,15.53,8.81,23.23,3.94c8.2-5.21,10.64-16.09,5.42-24.29L633.36,523.19z"/>
	<path class="st0" d="M782.59,433.66H727c-3.84-12.52-8.68-24.69-14.5-36.38l43.6-43.6c3.31-3.31,5.16-7.78,5.16-12.46
		c0-4.66-1.85-9.13-5.16-12.44l-77.6-77.6c-6.88-6.88-18.02-6.88-24.9,0l-42.23,42.23c-11.88-6.32-24.29-11.61-37.04-15.85v-59.95
		c0-9.71-7.88-17.59-17.62-17.59H446.96c-9.71,0-17.6,7.88-17.6,17.59v58.69c-13.39,4.15-26.38,9.5-38.84,15.95l-38.02-38.02
		c-6.88-6.85-18.02-6.85-24.87,0l-77.63,77.63c-6.88,6.85-6.88,18.02,0,24.87l38.31,38.31c-6.35,12.41-11.59,25.32-15.64,38.63
		h-55.27c-9.74,0-17.6,7.86-17.6,17.59V561c0,9.74,7.86,17.59,17.6,17.59h57.18c4.15,12.44,9.34,24.5,15.5,36.06l-40.85,40.88
		c-3.31,3.28-5.16,7.75-5.16,12.43c0,4.66,1.85,9.13,5.16,12.44l77.63,77.63c6.85,6.85,17.99,6.85,24.87,0l42.25-42.26
		c10.69,5.35,21.78,9.87,33.15,13.52v53.1c0,9.71,7.86,17.6,17.6,17.6h109.75c9.74,0,17.6-7.89,17.6-17.6v-52.97
		c12.33-3.94,24.32-8.89,35.85-14.79l43.76,43.76c6.88,6.88,18.02,6.88,24.9,0l77.6-77.6c3.31-3.31,5.16-7.78,5.16-12.46
		c0-4.66-1.85-9.13-5.16-12.44l-43.47-43.47c5.66-10.9,10.45-22.2,14.34-33.84h57.52c9.74,0,17.6-7.88,17.6-17.59V451.25
		C800.19,441.51,792.33,433.66,782.59,433.66 M765,543.4h-52.97c-7.94,0-14.9,5.32-16.99,12.97c-4.79,17.57-11.93,34.45-21.27,50.11
		c-4.13,6.93-3.02,15.74,2.67,21.46l40.43,40.4l-52.73,52.73l-40.64-40.64c-5.69-5.69-14.45-6.8-21.38-2.75
		c-16.3,9.58-33.79,16.8-51.99,21.46c-7.78,1.98-13.23,8.99-13.23,17.04v48.63h-74.56v-48.74c0-8.02-5.42-15.03-13.2-17.04
		c-17.33-4.47-34.03-11.27-49.64-20.19c-6.88-3.94-15.56-2.78-21.19,2.83l-39,39.03l-52.73-52.73l37.91-37.91
		c5.74-5.74,6.8-14.68,2.57-21.62c-9.9-16.22-17.46-33.73-22.44-52.07c-2.09-7.65-9.05-12.97-16.99-12.97H235v-74.56h51.09
		c8.12,0,15.19-5.56,17.12-13.47c4.6-19.13,12.04-37.47,22.07-54.53c4.05-6.91,2.94-15.69-2.73-21.35l-35.22-35.22l52.73-52.73
		l34.98,34.98c5.69,5.69,14.53,6.8,21.43,2.67c17.07-10.16,35.48-17.73,54.69-22.46c7.86-1.93,13.39-9,13.39-17.09v-54.45h74.56
		v55.48c0,7.96,5.37,14.95,13.07,16.99c18.65,5,36.46,12.62,52.94,22.7c6.96,4.23,15.88,3.17,21.62-2.57l39.32-39.29l52.71,52.71
		l-40.4,40.4c-5.61,5.61-6.77,14.29-2.83,21.19c9.42,16.46,16.46,34.13,20.93,52.57c1.91,7.91,8.97,13.47,17.09,13.47H765V543.4z"/>
</g>
</svg>