<?xml version="1.0" encoding="utf-8"?>
<!-- Generator: Adobe Illustrator 27.3.1, SVG Export Plug-In . SVG Version: 6.00 Build 0)  -->
<svg version="1.1" id="Layer_1" xmlns="http://www.w3.org/2000/svg" xmlns:xlink="http://www.w3.org/1999/xlink" x="0px" y="0px"
	 viewBox="0 0 1000 1000" style="enable-background:new 0 0 1000 1000;" xml:space="preserve">
<style type="text/css">
	.st0{fill:#DC143C;}
	.st1{fill:#222A35;}
	.st2{fill:#FFFFFF;}
</style>
<g>
	<g>
		<g>
			<g>
				<path class="st0" d="M225.1,724.2h188.8V410.3H225.1c-10.2,0-18.5,8.2-18.5,18.4v277C206.7,715.9,214.9,724.2,225.1,724.2z"/>
			</g>
			<g>
				<path class="st1" d="M413.9,734H225.1c-15.6,0-28.3-12.7-28.3-28.3v-277c0-15.6,12.7-28.2,28.3-28.2h188.8
					c5.4,0,9.8,4.4,9.8,9.8v313.9C423.7,729.6,419.3,734,413.9,734z M225.1,420.1c-4.8,0-8.7,3.9-8.7,8.6v277c0,4.8,3.9,8.7,8.7,8.7
					h179V420.1H225.1z"/>
			</g>
		</g>
		<g>
			<g>
				<path class="st2" d="M374.2,754.6h-48.7c-22,0-39.7-17.8-39.7-39.7V418.4c0-21.9,17.8-39.7,39.7-39.7h48.7
					c21.9,0,39.7,17.8,39.7,39.7v296.4C413.9,736.8,396.1,754.6,374.2,754.6z"/>
			</g>
			<g>
				<path class="st1" d="M374.2,764.4h-48.7c-27.3,0-49.5-22.2-49.5-49.5V418.4c0-27.3,22.2-49.5,49.5-49.5h48.7
					c27.3,0,49.5,22.2,49.5,49.5v296.4C423.7,742.2,401.5,764.4,374.2,764.4z M325.5,388.5c-16.5,0-29.9,13.4-29.9,29.9v296.4
					c0,16.5,13.4,29.9,29.9,29.9h48.7c16.5,0,29.9-13.4,29.9-29.9V418.4c0-16.5-13.4-29.9-29.9-29.9H325.5z"/>
			</g>
		</g>
		<g>
			<g>
				<path class="st2" d="M570,437.2c0,0,92.1-243.7-20.1-181.6c0,104.1-136,181.6-136,181.6v266.8h305.9c17.6,0,32.7-12.5,36-29.8
					l36.8-193.4c2.1-10.7-0.8-21.8-7.8-30.2c-7-8.4-17.3-13.3-28.3-13.3H570z"/>
			</g>
			<g>
				<path class="st1" d="M719.8,713.7H413.9c-5.4,0-9.8-4.4-9.8-9.8V437.2c0-3.5,1.9-6.8,4.9-8.5c1.3-0.7,131.1-76,131.1-173.1
					c0-3.6,1.9-6.8,5.1-8.6c24.5-13.6,43.4-15,56-4.1c33.5,29-1.5,140.5-17.1,184.5h172.6c13.9,0,26.9,6.1,35.8,16.8
					c8.9,10.7,12.5,24.7,9.9,38.4L765.5,676C761.3,697.9,742.1,713.7,719.8,713.7z M423.7,694.1h296.1c12.9,0,24-9.2,26.4-21.9
					L783,478.9c1.5-7.9-0.6-16-5.7-22.2c-5.1-6.2-12.7-9.7-20.7-9.7H570c-3.2,0-6.2-1.6-8.1-4.2c-1.8-2.7-2.3-6-1.1-9.1
					c23.6-62.5,47.8-158.5,27.5-176c-6.3-5.4-19.2-0.8-28.8,3.8c-4.4,95.2-111,166-135.9,181.2V694.1z"/>
			</g>
		</g>
		<g>
			<g>
				<path class="st0" d="M378.4,675.4c0,15.8-12.8,28.6-28.5,28.6c-15.8,0-28.6-12.8-28.6-28.6c0-15.8,12.8-28.6,28.6-28.6
					C365.6,646.8,378.4,659.6,378.4,675.4z"/>
			</g>
			<g>
				<path class="st1" d="M349.8,713.7c-21.2,0-38.4-17.2-38.4-38.4c0-21.2,17.2-38.4,38.4-38.4c21.1,0,38.3,17.2,38.3,38.4
					C388.2,696.5,371,713.7,349.8,713.7z M349.8,656.6c-10.3,0-18.8,8.4-18.8,18.8c0,10.3,8.4,18.8,18.8,18.8
					c10.3,0,18.7-8.4,18.7-18.8C368.6,665,360.2,656.6,349.8,656.6z"/>
			</g>
		</g>
	</g>
	<g>
		<path class="st1" d="M761.1,657H607.3c-5.6,0-10.2-4.6-10.2-10.2c0-5.6,4.6-10.2,10.2-10.2h153.7c5.6,0,10.2,4.6,10.2,10.2
			C771.2,652.4,766.7,657,761.1,657z"/>
	</g>
	<g>
		<path class="st1" d="M769.3,590.4H615.6c-5.6,0-10.2-4.6-10.2-10.2S610,570,615.6,570h153.7c5.6,0,10.2,4.6,10.2,10.2
			S774.9,590.4,769.3,590.4z"/>
	</g>
	<g>
		<path class="st1" d="M783.5,523.8H629.8c-5.6,0-10.2-4.6-10.2-10.2s4.6-10.2,10.2-10.2h153.7c5.6,0,10.2,4.6,10.2,10.2
			S789.1,523.8,783.5,523.8z"/>
	</g>
</g>
</svg>