<?xml version="1.0" encoding="utf-8"?>
<!-- Generator: Adobe Illustrator 27.3.1, SVG Export Plug-In . SVG Version: 6.00 Build 0)  -->
<svg version="1.1" id="Layer_1" xmlns="http://www.w3.org/2000/svg" xmlns:xlink="http://www.w3.org/1999/xlink" x="0px" y="0px"
	 viewBox="0 0 1000 1000" style="enable-background:new 0 0 1000 1000;" xml:space="preserve">
<style type="text/css">
	.st0{fill:#231F20;stroke:#231F20;stroke-miterlimit:10;}
</style>
<g>
	<g>
		<path class="st0" d="M709.57,815.57H412.55c-2.81,0-5.09-2.28-5.09-5.09c0-2.81,2.28-5.09,5.09-5.09h297.02
			c5.63,0,10.22-4.6,10.22-10.25v-10.73c0-12.97-10.55-23.52-23.52-23.52H257.2c-12.97,0-23.52,10.55-23.52,23.52v10.73
			c0,5.65,4.6,10.25,10.25,10.25h128.03c2.81,0,5.09,2.28,5.09,5.09c0,2.81-2.28,5.09-5.09,5.09H243.93
			c-11.26,0-20.42-9.16-20.42-20.42v-10.73c0-18.58,15.11-33.69,33.69-33.69h439.07c18.58,0,33.69,15.11,33.69,33.69v10.73
			C729.96,806.41,720.81,815.57,709.57,815.57z"/>
	</g>
	<g>
		<path class="st0" d="M363.95,760.89h-80.74c-2.81,0-5.09-2.28-5.09-5.09V563.06c0-8.69,7.07-15.76,15.76-15.76h59.4
			c8.69,0,15.76,7.07,15.76,15.76v192.75C369.03,758.62,366.76,760.89,363.95,760.89z M288.29,750.72h70.57V563.06
			c0-3.08-2.5-5.59-5.58-5.59h-59.4c-3.08,0-5.58,2.51-5.58,5.59V750.72z"/>
	</g>
	<g>
		<path class="st0" d="M517.1,760.89h-80.74c-2.81,0-5.09-2.28-5.09-5.09V470.52c0-8.69,7.07-15.76,15.76-15.76h59.4
			c8.69,0,15.76,7.07,15.76,15.76v285.28C522.19,758.62,519.91,760.89,517.1,760.89z M441.45,750.72h70.57v-280.2
			c0-3.08-2.5-5.58-5.58-5.58h-59.4c-3.08,0-5.58,2.51-5.58,5.58V750.72z"/>
	</g>
	<g>
		<path class="st0" d="M659.59,760.89h-59.4c-8.69,0-15.76-7.07-15.76-15.76V378.01c0-8.69,7.07-15.76,15.76-15.76h59.4
			c8.69,0,15.76,7.07,15.76,15.76v97.05c0,2.81-2.28,5.09-5.09,5.09c-2.81,0-5.09-2.28-5.09-5.09v-97.05c0-3.08-2.51-5.59-5.59-5.59
			h-59.4c-3.08,0-5.59,2.51-5.59,5.59v367.12c0,3.08,2.51,5.59,5.59,5.59h59.4c3.08,0,5.59-2.51,5.59-5.59V514.36
			c0-2.81,2.28-5.09,5.09-5.09c2.81,0,5.09,2.28,5.09,5.09v230.77C675.35,753.82,668.28,760.89,659.59,760.89z"/>
	</g>
	<g>
		<path class="st0" d="M667.07,329.56c-3.1,0-6.06-0.97-8.55-2.8l-28.63-20.78l-28.62,20.8c-5.1,3.71-11.97,3.71-17.09,0
			c-5.13-3.71-7.24-10.25-5.25-16.26l10.93-33.64l-28.65-20.8c-5.13-3.71-7.24-10.25-5.26-16.26c1.93-5.97,7.47-10,13.78-10h35.42
			l10.91-33.66c1.85-5.69,7.27-9.36,13.82-9.36c6.55,0,11.97,3.67,13.82,9.36l10.94,33.66h35.39c6.33,0,11.89,4.03,13.82,10.03
			c1.95,6.04-0.19,12.56-5.32,16.24l-28.59,20.78l10.94,33.66c1.95,6.05-0.19,12.58-5.32,16.25
			C673.13,328.59,670.17,329.56,667.07,329.56z M629.89,294.6c1.05,0,2.1,0.32,2.99,0.97l31.64,22.97c1.52,1.11,3.61,1.1,5.07,0.02
			c1.55-1.11,2.2-3.11,1.62-4.89l-12.08-37.17c-0.68-2.1,0.07-4.39,1.85-5.69l31.61-22.97c1.52-1.09,2.17-3.09,1.59-4.87
			c-0.58-1.78-2.24-2.98-4.14-2.98h-39.09c-2.2,0-4.16-1.42-4.84-3.51l-12.08-37.18c-0.56-1.72-2.58-2.33-4.14-2.33
			c-1.56,0-3.58,0.61-4.14,2.33l-12.05,37.17c-0.68,2.1-2.63,3.52-4.84,3.52h-39.12c-1.85,0-3.54,1.23-4.11,2.98
			c-0.59,1.79,0.05,3.78,1.55,4.86l31.65,22.98c1.78,1.29,2.53,3.59,1.85,5.69l-12.08,37.18c-0.59,1.78,0.05,3.77,1.56,4.85
			c1.54,1.12,3.6,1.12,5.13,0.01l31.61-22.97C627.79,294.93,628.84,294.6,629.89,294.6z"/>
	</g>
	<g>
		<path class="st0" d="M534.45,211.48c-0.86,0-1.74-0.22-2.54-0.68l-25.35-14.65c-2.43-1.41-3.27-4.52-1.86-6.95
			c1.41-2.43,4.52-3.26,6.95-1.86l25.35,14.65c2.43,1.41,3.27,4.52,1.86,6.95C537.91,210.57,536.2,211.48,534.45,211.48z"/>
	</g>
	<g>
		<path class="st0" d="M520.25,267.11h-29.29c-2.81,0-5.09-2.28-5.09-5.09c0-2.81,2.28-5.09,5.09-5.09h29.29
			c2.81,0,5.09,2.28,5.09,5.09C525.34,264.84,523.06,267.11,520.25,267.11z"/>
	</g>
	<g>
		<path class="st0" d="M510.39,337.06c-1.76,0-3.46-0.91-4.41-2.54c-1.4-2.43-0.57-5.54,1.86-6.95l25.35-14.65
			c2.43-1.4,5.54-0.57,6.95,1.86c1.4,2.43,0.57,5.54-1.86,6.95l-25.35,14.65C512.13,336.84,511.26,337.06,510.39,337.06z"/>
	</g>
	<g>
		<path class="st0" d="M753.26,334.82c-0.86,0-1.74-0.22-2.54-0.68l-25.35-14.64c-2.43-1.4-3.27-4.52-1.86-6.95
			c1.41-2.43,4.52-3.26,6.95-1.86l25.35,14.64c2.43,1.4,3.27,4.52,1.86,6.95C756.72,333.91,755.02,334.82,753.26,334.82z"/>
	</g>
	<g>
		<path class="st0" d="M771.4,264.54h-29.29c-2.81,0-5.09-2.28-5.09-5.09s2.28-5.09,5.09-5.09h29.29c2.81,0,5.09,2.28,5.09,5.09
			S774.21,264.54,771.4,264.54z"/>
	</g>
	<g>
		<path class="st0" d="M726.63,209.25c-1.76,0-3.46-0.91-4.41-2.54c-1.4-2.43-0.57-5.54,1.86-6.95l25.35-14.65
			c2.43-1.4,5.54-0.57,6.95,1.86c1.4,2.43,0.57,5.54-1.86,6.95l-25.35,14.65C728.37,209.03,727.49,209.25,726.63,209.25z"/>
	</g>
</g>
</svg>