<?xml version="1.0" encoding="utf-8"?>
<!-- Generator: Adobe Illustrator 27.3.1, SVG Export Plug-In . SVG Version: 6.00 Build 0)  -->
<svg version="1.1" id="Layer_1" xmlns="http://www.w3.org/2000/svg" xmlns:xlink="http://www.w3.org/1999/xlink" x="0px" y="0px"
	 viewBox="0 0 1000 1000" style="enable-background:new 0 0 1000 1000;" xml:space="preserve">
<style type="text/css">
	.st0{fill:#DC143C;}
	.st1{fill:#222A35;}
	.st2{fill:#FFFFFF;}
</style>
<g>
	<g>
		<g>
			<g>
				<g>
					<polygon class="st0" points="607.3,430 779.1,430 779.1,646.3 707.6,646.3 707.7,668.5 707.8,680.4 707.9,709.3 690,698.2 
						682.6,693.7 666,683.4 662.5,681.3 643,669.2 641.5,668.2 623,656.8 616.9,653.1 605.9,646.3 392.7,646.3 392.7,507.9 					"/>
				</g>
				<g>
					<path class="st1" d="M707.9,718.6c-1.7,0-3.4-0.4-4.9-1.4l-99.7-61.6H392.7c-5.1,0-9.3-4.2-9.3-9.3V507.9
						c0-5.1,4.2-9.3,9.3-9.3c5.1,0,9.3,4.2,9.3,9.3V637h204c1.7,0,3.4,0.5,4.9,1.4l87.7,54.2l-0.2-46.2c0-2.5,1-4.9,2.7-6.6
						c1.7-1.7,4.1-2.7,6.6-2.7h62.1V439.4H607.3c-5.1,0-9.3-4.2-9.3-9.3c0-5.1,4.2-9.3,9.3-9.3h171.7c5.1,0,9.3,4.2,9.3,9.3v216.2
						c0,5.1-4.2,9.3-9.3,9.3H717l0.3,53.7c0,3.4-1.8,6.5-4.7,8.2C711.1,718.2,709.5,718.6,707.9,718.6z"/>
				</g>
			</g>
		</g>
		<g>
			<g>
				<polygon class="st2" points="220.9,290.7 220.9,507 292.4,507 292.1,570 394.1,507 607.3,507 607.3,290.7 				"/>
			</g>
			<g>
				<path class="st1" d="M292.1,579.3c-1.6,0-3.1-0.4-4.5-1.2c-3-1.7-4.8-4.8-4.8-8.2l0.3-53.7h-62.1c-5.1,0-9.3-4.2-9.3-9.3V290.7
					c0-5.1,4.2-9.3,9.3-9.3h386.4c5.1,0,9.3,4.2,9.3,9.3V507c0,5.1-4.2,9.3-9.3,9.3H396.7L297,577.9
					C295.5,578.9,293.8,579.3,292.1,579.3z M230.2,497.7h62.2c2.5,0,4.9,1,6.6,2.7c1.7,1.8,2.7,4.1,2.7,6.6l-0.2,46.3l87.7-54.2
					c1.5-0.9,3.2-1.4,4.9-1.4h204V300H230.2V497.7z"/>
			</g>
		</g>
	</g>
	<g>
		<g>
			<g>
				<ellipse class="st0" cx="330.3" cy="395.1" rx="30.5" ry="30.5"/>
			</g>
			<g>
				<path class="st1" d="M330.3,369.4c14.2,0,25.7,11.5,25.7,25.7c0,14.2-11.5,25.7-25.7,25.7s-25.7-11.5-25.7-25.7
					C304.6,380.9,316.1,369.4,330.3,369.4 M330.3,359.8c-19.5,0-35.3,15.8-35.3,35.3s15.8,35.3,35.3,35.3s35.3-15.8,35.3-35.3
					S349.8,359.8,330.3,359.8L330.3,359.8z"/>
			</g>
		</g>
		<g>
			<g>
				<ellipse class="st0" cx="414.1" cy="395.1" rx="30.5" ry="30.5"/>
			</g>
			<g>
				<path class="st1" d="M414.1,369.4c14.2,0,25.7,11.5,25.7,25.7c0,14.2-11.5,25.7-25.7,25.7c-14.2,0-25.7-11.5-25.7-25.7
					C388.5,380.9,400,369.4,414.1,369.4 M414.1,359.8c-19.5,0-35.3,15.8-35.3,35.3s15.8,35.3,35.3,35.3c19.5,0,35.3-15.8,35.3-35.3
					S433.6,359.8,414.1,359.8L414.1,359.8z"/>
			</g>
		</g>
		<g>
			<g>
				<ellipse class="st0" cx="498" cy="395.1" rx="30.5" ry="30.5"/>
			</g>
			<g>
				<path class="st1" d="M498,369.4c14.2,0,25.7,11.5,25.7,25.7c0,14.2-11.5,25.7-25.7,25.7c-14.2,0-25.7-11.5-25.7-25.7
					C472.3,380.9,483.8,369.4,498,369.4 M498,359.8c-19.5,0-35.3,15.8-35.3,35.3s15.8,35.3,35.3,35.3c19.5,0,35.3-15.8,35.3-35.3
					S517.4,359.8,498,359.8L498,359.8z"/>
			</g>
		</g>
	</g>
</g>
</svg>