<?xml version="1.0" encoding="utf-8"?>
<!-- Generator: Adobe Illustrator 27.3.1, SVG Export Plug-In . SVG Version: 6.00 Build 0)  -->
<svg version="1.1" id="Layer_1" xmlns="http://www.w3.org/2000/svg" xmlns:xlink="http://www.w3.org/1999/xlink" x="0px" y="0px"
	 viewBox="0 0 1000 1000" style="enable-background:new 0 0 1000 1000;" xml:space="preserve">
<style type="text/css">
	.st0{fill:#231F20;stroke:#231F20;stroke-miterlimit:10;}
</style>
<g>
	<g>
		<path class="st0" d="M196.98,285.11c-2.81,0-5.09-2.28-5.09-5.09V218c0-18.51,15.06-33.56,33.56-33.56h298.62
			c2.81,0,5.09,2.28,5.09,5.09c0,2.81-2.28,5.09-5.09,5.09H225.45c-12.9,0-23.39,10.49-23.39,23.39v62.03
			C202.06,282.84,199.79,285.11,196.98,285.11z"/>
	</g>
	<g>
		<path class="st0" d="M620.66,815.57H225.44c-18.51,0-33.57-15.06-33.57-33.56V344.1c0-2.81,2.28-5.09,5.09-5.09
			s5.09,2.28,5.09,5.09v437.91c0,12.9,10.49,23.39,23.39,23.39h395.22c12.9,0,23.39-10.49,23.39-23.39V665.06
			c0-2.81,2.28-5.09,5.09-5.09c2.81,0,5.09,2.28,5.09,5.09v116.95C654.23,800.52,639.17,815.57,620.66,815.57z"/>
	</g>
	<g>
		<path class="st0" d="M649.15,319.69c-1.3,0-2.6-0.5-3.6-1.49L520.47,193.11c-1.99-1.99-1.99-5.21,0-7.19
			c1.99-1.99,5.21-1.99,7.19,0L652.75,311c1.99,1.99,1.99,5.21,0,7.19C651.75,319.19,650.45,319.69,649.15,319.69z"/>
	</g>
	<g>
		<path class="st0" d="M649.15,392.23c-2.81,0-5.09-2.28-5.09-5.09v-67.45h-91.52c-18.51,0-33.56-15.06-33.56-33.56v-96.61
			c0-2.81,2.28-5.09,5.09-5.09c2.81,0,5.09,2.28,5.09,5.09v96.61c0,12.9,10.49,23.39,23.39,23.39h96.61c2.81,0,5.09,2.28,5.09,5.09
			v72.54C654.24,389.95,651.96,392.23,649.15,392.23z"/>
	</g>
	<g>
		<path class="st0" d="M322.94,432.45h-70.19c-2.81,0-5.09-2.28-5.09-5.09v-70.19c0-2.81,2.28-5.09,5.09-5.09h70.19
			c2.81,0,5.09,2.28,5.09,5.09v70.19C328.03,430.17,325.75,432.45,322.94,432.45z M257.83,422.28h60.02v-60.02h-60.02V422.28z"/>
	</g>
	<g>
		<path class="st0" d="M322.94,566.27h-70.19c-2.81,0-5.09-2.28-5.09-5.09v-70.19c0-2.81,2.28-5.09,5.09-5.09h70.19
			c2.81,0,5.09,2.28,5.09,5.09v70.19C328.03,563.99,325.75,566.27,322.94,566.27z M257.83,556.1h60.02v-60.02h-60.02V556.1z"/>
	</g>
	<g>
		<path class="st0" d="M322.94,700.09h-70.19c-2.81,0-5.09-2.28-5.09-5.09v-70.19c0-2.81,2.28-5.09,5.09-5.09h70.19
			c2.81,0,5.09,2.28,5.09,5.09V695C328.03,697.81,325.75,700.09,322.94,700.09z M257.83,689.91h60.02v-60.02h-60.02V689.91z"/>
	</g>
	<g>
		<path class="st0" d="M578.81,638.37c-28.77,0-57.55-10.94-79.45-32.83c-14.47-14.47-24.7-32.56-29.6-52.32
			c-0.68-2.73,0.99-5.49,3.71-6.16c2.74-0.68,5.48,0.99,6.16,3.71c4.46,17.97,13.77,34.42,26.92,47.57
			c39.85,39.82,104.69,39.81,144.52,0c39.82-39.85,39.82-104.67,0-144.49c-19.31-19.31-44.97-29.94-72.26-29.94
			c-27.29,0-52.95,10.63-72.26,29.94c-13.08,13.08-22.37,29.46-26.86,47.37c-0.68,2.73-3.44,4.38-6.17,3.7
			c-2.73-0.68-4.38-3.45-3.7-6.17c4.94-19.7,15.16-37.71,29.54-52.09c21.23-21.23,49.44-32.92,79.45-32.92
			c30.01,0,58.23,11.69,79.46,32.92c43.79,43.79,43.79,115.06,0,158.88C636.36,627.42,607.58,638.37,578.81,638.37z"/>
	</g>
	<g>
		<path class="st0" d="M578.81,686.85c-41.19,0-82.38-15.68-113.74-47.04c-62.69-62.72-62.69-164.76,0-227.45
			c62.71-62.71,164.76-62.72,227.48,0c12.45,12.45,22.68,26.69,30.41,42.31c1.25,2.52,0.21,5.57-2.3,6.81
			c-2.52,1.24-5.57,0.21-6.82-2.3c-7.23-14.63-16.82-27.96-28.48-39.63c-58.75-58.75-154.35-58.75-213.09,0
			c-58.73,58.73-58.73,154.3,0,213.06c29.37,29.37,67.96,44.06,106.55,44.06c38.59,0,77.17-14.68,106.55-44.06
			c34.35-34.35,50.07-83.51,42.05-131.51c-0.46-2.77,1.41-5.39,4.18-5.86c2.79-0.46,5.39,1.41,5.85,4.18
			c8.56,51.23-8.22,103.71-44.89,140.38C661.19,671.17,620,686.85,578.81,686.85z"/>
	</g>
	<g>
		<path class="st0" d="M688.95,684.74c-1.3,0-2.6-0.5-3.6-1.49l-21.72-21.72c-1.99-1.99-1.99-5.21,0-7.19l43.44-43.44
			c1.99-1.99,5.21-1.99,7.19,0l21.72,21.72c0.95,0.95,1.49,2.25,1.49,3.6c0,1.35-0.54,2.64-1.49,3.6l-43.44,43.44
			C691.55,684.24,690.25,684.74,688.95,684.74z M674.42,657.93l14.52,14.52l36.25-36.24l-14.53-14.52L674.42,657.93z"/>
	</g>
	<g>
		<path class="st0" d="M766.88,755.39c-11.02,0-21.38-4.29-29.17-12.08l-56.21-56.2c-1.99-1.99-1.99-5.21,0-7.19l51.13-51.14
			c1.91-1.91,5.29-1.91,7.19,0l56.21,56.21c7.79,7.79,12.08,18.14,12.08,29.16c0,11.02-4.29,21.38-12.08,29.16l0,0c0,0,0,0,0,0
			C788.26,751.1,777.9,755.39,766.88,755.39z M692.3,683.52l52.61,52.61c5.86,5.87,13.67,9.1,21.97,9.1s16.11-3.23,21.97-9.1
			c0,0,0,0,0,0c5.86-5.86,9.1-13.67,9.1-21.97s-3.23-16.11-9.1-21.97l-52.61-52.61L692.3,683.52z"/>
	</g>
	<g>
		<path class="st0" d="M586.61,375.42H369.48c-2.81,0-5.09-2.28-5.09-5.09c0-2.81,2.28-5.09,5.09-5.09h217.13
			c2.81,0,5.09,2.28,5.09,5.09C591.69,373.14,589.42,375.42,586.61,375.42z"/>
	</g>
	<g>
		<path class="st0" d="M467.31,418.28h-97.83c-2.81,0-5.09-2.28-5.09-5.09s2.28-5.09,5.09-5.09h97.83c2.81,0,5.09,2.28,5.09,5.09
			S470.11,418.28,467.31,418.28z"/>
	</g>
	<g>
		<path class="st0" d="M423.06,510.9h-53.58c-2.81,0-5.09-2.28-5.09-5.09s2.28-5.09,5.09-5.09h53.58c2.81,0,5.09,2.28,5.09,5.09
			S425.87,510.9,423.06,510.9z"/>
	</g>
	<g>
		<path class="st0" d="M423.06,555.27h-53.58c-2.81,0-5.09-2.28-5.09-5.09s2.28-5.09,5.09-5.09h53.58c2.81,0,5.09,2.28,5.09,5.09
			S425.87,555.27,423.06,555.27z"/>
	</g>
	<g>
		<path class="st0" d="M471.55,646.33H369.49c-2.81,0-5.09-2.28-5.09-5.09s2.28-5.09,5.09-5.09h102.05c2.81,0,5.09,2.28,5.09,5.09
			S474.36,646.33,471.55,646.33z"/>
	</g>
	<g>
		<path class="st0" d="M586.61,686.92H369.48c-2.81,0-5.09-2.28-5.09-5.09s2.28-5.09,5.09-5.09h217.13c2.81,0,5.09,2.28,5.09,5.09
			S589.42,686.92,586.61,686.92z"/>
	</g>
	<g>
		<path class="st0" d="M562.2,576.97c-5.44,0-10.53-2.12-14.35-5.98l-27.99-27.96c-3.83-3.83-5.93-8.92-5.93-14.33
			c0-5.43,2.11-10.53,5.93-14.36c3.69-3.68,8.9-5.79,14.33-5.79c0.02,0,0.04,0,0.05,0c5.43,0.01,10.64,2.14,14.3,5.84l13.66,13.66
			l46.92-46.91c7.86-7.86,20.71-7.87,28.64-0.02c7.89,7.93,7.89,20.8,0.03,28.7l-61.25,61.22
			C572.75,574.85,567.66,576.97,562.2,576.97z M534.19,518.71c-2.75,0-5.35,1.02-7.14,2.81c-1.9,1.91-2.95,4.45-2.95,7.17
			c0,2.74,1.02,5.2,2.95,7.14l28.01,27.98c3.84,3.88,10.53,3.82,14.26,0.05l61.26-61.23c3.92-3.94,3.92-10.37-0.01-14.31
			c-3.93-3.9-10.35-3.91-14.26,0.01l-50.51,50.51c-0.95,0.95-2.25,1.49-3.6,1.49l0,0c-1.35,0-2.64-0.54-3.6-1.49l-17.27-17.28
			c-1.79-1.81-4.37-2.84-7.11-2.84C534.21,518.71,534.2,518.71,534.19,518.71z"/>
	</g>
</g>
</svg>